<svg width="36" height="32" viewBox="0 0 36 32" fill="none" xmlns="http://www.w3.org/2000/svg">
<path d="M35.875 19.5434L23.5192 0.396841C23.4414 0.274761 23.3294 0.173686 23.1946 0.103967C23.0598 0.0342471 22.9071 -0.0016137 22.7521 5.57361e-05C22.5973 -1.14769e-06 22.4451 0.0365351 22.3105 0.106088C22.1758 0.175641 22.0633 0.275828 21.984 0.396841L18.0002 6.57801L14.0082 0.405166C13.9302 0.283076 13.818 0.182019 13.683 0.11231C13.5481 0.0426013 13.3952 0.00673751 13.2401 0.00837991C13.0853 0.00859476 12.9333 0.0452462 12.7987 0.114773C12.6641 0.1843 12.5516 0.284338 12.472 0.405166L0.12531 19.5434C0.0243136 19.6961 -0.0174634 19.8753 0.00666827 20.0522C0.0308 20.2291 0.119445 20.3935 0.258409 20.5192L12.6142 31.767C12.7812 31.9163 13.006 32 13.2401 32C13.4742 32 13.699 31.9163 13.866 31.767L18.0002 28.0118L22.1262 31.767C22.2932 31.9163 22.518 32 22.7521 32C22.9862 32 23.2109 31.9163 23.378 31.767L35.7338 20.5192C35.8756 20.3953 35.9669 20.2312 35.9926 20.0538C36.0183 19.8765 35.9768 19.6964 35.875 19.5434ZM13.2482 30.0596L2.0019 19.8199L13.2482 2.39927L16.975 8.16607L9.62612 19.5424C9.5253 19.6952 9.48362 19.8744 9.50775 20.0512C9.53187 20.2281 9.62041 20.3925 9.75922 20.5182L16.7383 26.8714L13.2482 30.0596ZM18.0002 9.76431L24.4956 19.8208L18.0002 25.7347L11.5037 19.8208L18.0002 9.76431ZM22.7511 30.0596L19.2519 26.8742L26.2309 20.521C26.3696 20.3952 26.458 20.2308 26.4821 20.054C26.5063 19.8771 26.4647 19.6981 26.364 19.5452L19.0243 8.1744L22.7511 2.40482L33.9974 19.8292L22.7511 30.0596Z" fill="currentColor"/>
</svg>
