<svg width="40" height="40" viewBox="0 0 40 40" fill="none" xmlns="http://www.w3.org/2000/svg">
<path d="M34.0669 22.3845L34.0672 22.3849C34.2923 22.6724 34.4549 23.0038 34.5446 23.3578C34.625 23.6751 34.6453 24.0043 34.6046 24.3284L34.5855 24.44C34.5236 24.8011 34.387 25.1453 34.1842 25.4504C33.9815 25.7556 33.7172 26.0149 33.4083 26.2118L33.4077 26.2122L20.9107 34.211C20.4883 34.4813 19.9973 34.625 19.4958 34.625C18.9943 34.625 18.5033 34.4813 18.0809 34.211L5.58392 26.2123C5.58389 26.2123 5.58385 26.2122 5.58382 26.2122C5.27611 26.0151 5.01295 25.7559 4.8112 25.4512C4.60943 25.1464 4.47353 24.8029 4.41221 24.4425C4.35088 24.0822 4.36549 23.7131 4.45509 23.3587C4.54469 23.0043 4.70731 22.6726 4.93253 22.3848L4.93271 22.3845L17.4298 6.38687L17.4301 6.38644C17.6754 6.07148 17.9894 5.81666 18.348 5.64138L18.1834 5.30446L18.348 5.64138C18.7067 5.46611 19.1006 5.375 19.4998 5.375C19.899 5.375 20.2929 5.46611 20.6516 5.64138C21.0102 5.81666 21.3242 6.07148 21.5695 6.38644L21.5698 6.38687L34.0669 22.3845ZM6.71343 23.7726L6.45984 24.0972L6.80681 24.3193L17.8042 31.3575L18.3814 31.7269V31.0417V9.92511V8.8359L17.7109 9.69426L6.71343 23.7726ZM20.6307 31.0426V31.7278L21.2078 31.3584L32.2053 24.3202L32.5522 24.0981L32.2986 23.7735L21.3012 9.69516L20.6307 8.83679V9.92601V31.0426Z" fill="currentColor" stroke="white" stroke-width="0.45"/>
</svg>
