<svg width="35" height="35" viewBox="0 0 35 35" fill="none" xmlns="http://www.w3.org/2000/svg">
<path d="M15.3125 3.21345e-07C16.1183 -0.000389538 16.8924 0.353971 17.4706 0.987828C18.0487 1.62169 18.3853 2.48511 18.4089 3.39475V3.50051V31.5003C18.4105 31.8746 18.541 32.2335 18.7727 32.5011C19.0044 32.7687 19.3191 32.924 19.6504 32.9342C19.9817 32.9444 20.3035 32.8087 20.5477 32.5557C20.792 32.3028 20.9395 31.9524 20.9592 31.5788V31.5003V10.0913C20.9461 9.16253 21.2602 8.26595 21.8324 7.59876C22.4045 6.93157 23.1879 6.54842 24.0102 6.53361C24.8326 6.51879 25.6264 6.87352 26.2171 7.51975C26.8079 8.16599 27.1471 9.0508 27.1602 9.97953V19.9701C27.1602 20.3525 27.2947 20.7191 27.534 20.9894C27.7734 21.2598 28.098 21.4116 28.4365 21.4116C28.775 21.4116 29.0996 21.2598 29.339 20.9894C29.5783 20.7191 29.7128 20.3525 29.7128 19.9701C29.7125 19.0601 30.0262 18.1858 30.5874 17.5328C31.1487 16.8799 31.9131 16.4997 32.7185 16.473H32.8114H35.0015V18.5321H32.8114C32.4848 18.5322 32.1706 18.6738 31.9336 18.9277C31.6966 19.1815 31.5548 19.5284 31.5374 19.8968V19.9761C31.5497 20.9036 31.2353 21.7986 30.6633 22.4643C30.0914 23.13 29.3087 23.5118 28.4875 23.5257C27.6663 23.5396 26.8738 23.1845 26.2844 22.5385C25.695 21.8925 25.357 21.0085 25.3447 20.081V19.9761V10.0879C25.3433 9.71351 25.2129 9.35449 24.9813 9.08674C24.7496 8.81899 24.4349 8.66351 24.1035 8.65321C23.7722 8.6429 23.4504 8.77858 23.206 9.03152C22.9617 9.28447 22.8141 9.63484 22.7944 10.0085V10.0879V31.4969C22.8067 32.425 22.4921 33.3206 21.9198 33.9866C21.3474 34.6527 20.5643 35.0347 19.7426 35.0486C18.9209 35.0625 18.1279 34.7072 17.5382 34.0608C16.9485 33.4144 16.6102 32.5299 16.5979 31.6018V31.4961V3.4971C16.6 3.12027 16.4712 2.75753 16.2393 2.48665C16.0074 2.21576 15.6907 2.05831 15.3571 2.04804C15.0236 2.03778 14.6998 2.17552 14.4551 2.43173C14.2105 2.68795 14.0644 3.04223 14.0483 3.41863V3.49795V24.907C14.0607 25.8351 13.746 26.7307 13.1737 27.3967C12.6014 28.0628 11.8182 28.4448 10.9965 28.4587C10.1748 28.4726 9.38191 28.1173 8.79216 27.4709C8.20242 26.8245 7.86419 25.94 7.85187 25.0119V24.907V15.0299C7.86119 14.6456 7.73497 14.273 7.501 13.9938C7.26703 13.7147 6.94447 13.552 6.60427 13.5415C6.26407 13.5309 5.93411 13.6735 5.68697 13.9377C5.43983 14.202 5.29575 14.5663 5.28644 14.9505V15.0299C5.28678 15.9399 4.97303 16.8142 4.41181 17.4672C3.85059 18.1201 3.08611 18.5003 2.28072 18.527H2.18708H0V16.4705H2.1901C2.35767 16.4706 2.52361 16.4334 2.67846 16.3611C2.8333 16.2887 2.974 16.1826 3.09253 16.0488C3.21105 15.9151 3.30508 15.7562 3.36923 15.5814C3.43338 15.4065 3.46639 15.2191 3.46639 15.0299C3.45428 14.1023 3.76891 13.2072 4.34109 12.5416C4.91327 11.876 5.69612 11.4944 6.51742 11.4807C7.33873 11.467 8.1312 11.8224 8.72052 12.4686C9.30983 13.1149 9.64772 13.999 9.65983 14.9266V15.0324V24.9121C9.66146 25.2864 9.79192 25.6453 10.0236 25.9129C10.2553 26.1805 10.5701 26.3358 10.9014 26.346C11.2326 26.3562 11.5544 26.2205 11.7987 25.9675C12.0429 25.7146 12.1905 25.3642 12.2102 24.9906V24.9121V3.4971C12.2102 2.56961 12.5364 1.68011 13.1171 1.02428C13.6977 0.368444 14.4853 3.21345e-07 15.3065 3.21345e-07H15.3125Z" fill="currentColor"/>
</svg>
