<svg width="31" height="34" viewBox="0 0 31 34" fill="none" xmlns="http://www.w3.org/2000/svg">
<g clip-path="url(#clip0_851_65632)">
<path d="M11.3648 8.53299C12.2132 8.53299 13.0425 8.28276 13.7479 7.81396C14.4534 7.34515 15.0032 6.67881 15.3278 5.89921C15.6525 5.11961 15.7375 4.26176 15.5719 3.43414C15.4064 2.60653 14.9979 1.84631 14.398 1.24963C13.7981 0.652949 13.0337 0.246605 12.2016 0.0819814C11.3695 -0.0826422 10.507 0.0018486 9.72323 0.324769C8.93941 0.64769 8.26947 1.19454 7.79812 1.89616C7.32678 2.59778 7.0752 3.42266 7.0752 4.2665C7.07687 5.39753 7.52934 6.48176 8.33343 7.28153C9.13752 8.08129 10.2276 8.53133 11.3648 8.53299ZM11.3648 1.75938C11.8634 1.75938 12.3507 1.90644 12.7653 2.18195C13.1798 2.45746 13.5029 2.84906 13.6936 3.30721C13.8844 3.76536 13.9343 4.26949 13.837 4.75584C13.7397 5.24219 13.4995 5.68891 13.1469 6.03952C12.7944 6.39012 12.3452 6.62885 11.8562 6.72551C11.3671 6.82218 10.8603 6.77244 10.3997 6.58259C9.93914 6.39273 9.5455 6.07129 9.2686 5.65892C8.9917 5.24654 8.84397 4.76175 8.8441 4.26587C8.84493 3.60125 9.11079 2.96411 9.58335 2.49421C10.0559 2.02432 10.6966 1.76005 11.3648 1.75938Z" fill="currentColor"/>
<path d="M6.45649 7.08161C6.45662 6.44654 6.26739 5.82569 5.91274 5.29758C5.55809 4.76947 5.05395 4.35783 4.46408 4.11471C3.87421 3.87159 3.22509 3.80792 2.59883 3.93174C1.97257 4.05556 1.3973 4.36131 0.945756 4.81034C0.494215 5.25936 0.186691 5.83148 0.0620775 6.45434C-0.0625363 7.07721 0.00135685 7.72284 0.245677 8.30959C0.489996 8.89633 0.903768 9.39784 1.43466 9.75068C1.96556 10.1035 2.58973 10.2919 3.22825 10.2919C4.08401 10.2909 4.90445 9.95233 5.50963 9.35053C6.11481 8.74873 6.45532 7.93277 6.45649 7.08161ZM1.7689 7.08161C1.76865 6.79433 1.85408 6.51343 2.01438 6.27445C2.17468 6.03548 2.40265 5.84916 2.66944 5.73908C2.93623 5.629 3.22985 5.6001 3.51316 5.65604C3.79647 5.71197 4.05673 5.85024 4.26101 6.05333C4.4653 6.25643 4.60442 6.51523 4.66078 6.79699C4.71715 7.07874 4.68822 7.3708 4.57766 7.6362C4.4671 7.9016 4.27987 8.12842 4.03967 8.28796C3.79947 8.4475 3.51708 8.5326 3.22825 8.53247C2.84152 8.53181 2.47081 8.37876 2.1973 8.10683C1.92378 7.8349 1.76974 7.46626 1.7689 7.08161Z" fill="currentColor"/>
<path d="M25.4706 15.0283C25.8884 13.5066 25.7025 11.8834 24.9513 10.4942C24.2001 9.105 22.941 8.05594 21.4342 7.56383C19.9274 7.07172 18.2881 7.17419 16.8552 7.85005C15.4222 8.5259 14.305 9.7235 13.7346 11.1953C12.766 10.4887 11.6429 10.0205 10.4572 9.82901C9.2716 9.63752 8.05721 9.72823 6.91362 10.0937C5.77003 10.4592 4.72981 11.089 3.87822 11.9316C3.02663 12.7741 2.38792 13.8054 2.01445 14.9409C1.64098 16.0764 1.54338 17.2837 1.72965 18.464C1.91593 19.6442 2.38077 20.7638 3.08607 21.7308C3.79138 22.6979 4.71707 23.4849 5.78726 24.0275C6.85744 24.57 8.04166 24.8525 9.24283 24.8519C9.78755 24.8506 10.3306 24.7914 10.8626 24.6753C11.2265 29.8774 15.5957 34 20.9176 34C26.477 34 31.0003 29.501 31.0003 23.9716C30.9981 22.1184 30.4803 20.302 29.5042 18.7236C28.5281 17.1451 27.1318 15.8661 25.47 15.0283H25.4706ZM19.5025 9.01683C20.6749 9.01816 21.799 9.48199 22.628 10.3066C23.457 11.1312 23.9234 12.2491 23.9247 13.4153C23.9245 13.7358 23.8884 14.0553 23.8173 14.3679C21.3835 13.6391 18.7626 13.8537 16.4814 14.9686C16.1957 14.0899 15.7503 13.2708 15.1674 12.5519C15.3691 11.5558 15.9109 10.6596 16.701 10.0153C17.4911 9.37104 18.4808 9.01828 19.5025 9.01683ZM10.8993 22.8499C9.91291 23.1418 8.86648 23.1692 7.86606 22.9291C6.86565 22.6891 5.94683 22.1903 5.20274 21.4832C4.45865 20.7761 3.91575 19.8859 3.62908 18.9029C3.3424 17.9198 3.32214 16.8789 3.57035 15.8855C3.81856 14.8922 4.32642 13.9817 5.04244 13.2465C5.75846 12.5113 6.65718 11.9775 7.6475 11.6992C8.63782 11.4208 9.68454 11.4078 10.6815 11.6615C11.6785 11.9152 12.5903 12.4266 13.3246 13.1438C13.6998 13.5114 14.0238 13.9273 14.288 14.3804C14.5691 14.862 14.7785 15.3816 14.9096 15.923C14.9273 15.9965 14.9488 16.0682 14.9646 16.1429C15.0137 16.3986 15.0458 16.6572 15.0606 16.9171C15.0682 17.0396 15.0789 17.1615 15.0789 17.2865C15.0789 17.4248 15.0676 17.5592 15.0581 17.6943C15.0467 17.8533 15.029 18.0085 15.005 18.165C14.8338 19.2513 14.3575 20.2674 13.631 21.0963C12.9045 21.9252 11.9573 22.5331 10.8987 22.8499H10.8993ZM20.9176 32.2406C16.3639 32.2406 12.6549 28.5799 12.6056 24.0614C13.6304 23.5573 14.5282 22.8305 15.2324 21.9347C15.9367 21.0389 16.4294 19.9971 16.6741 18.8863C16.7405 18.581 16.7875 18.2719 16.815 17.9608C16.8352 17.7383 16.8491 17.5134 16.8491 17.2859C16.8491 17.1602 16.8365 17.0346 16.8295 16.9089C16.8295 16.8649 16.8264 16.8209 16.8226 16.7763C18.0873 16.0643 19.5175 15.6945 20.9707 15.7037C22.4239 15.713 23.8492 16.1009 25.1047 16.8289C26.3601 17.5569 27.4017 18.5995 28.1257 19.8528C28.8497 21.106 29.2307 22.5262 29.2308 23.9716C29.2308 28.5309 25.5035 32.2406 20.917 32.2406H20.9176Z" fill="currentColor"/>
</g>
<defs>
<clipPath id="clip0_851_65632">
<rect width="31" height="34" fill="white"/>
</clipPath>
</defs>
</svg>
