<svg width="38" height="40" viewBox="0 0 38 40" fill="none" xmlns="http://www.w3.org/2000/svg">
<g clip-path="url(#clip0_820_93876)">
<mask id="path-1-outside-1_820_93876" maskUnits="userSpaceOnUse" x="-1" y="-0.999756" width="40" height="42" fill="currentColor">
<rect fill="currentColor" x="-1" y="-0.999756" width="40" height="42" />
<path d="M37.9556 11.5851C37.9223 11.5135 37.8713 11.4517 37.8075 11.4055C37.7436 11.3592 37.669 11.3301 37.5907 11.321L29.642 10.3616V8.21624C29.6415 8.15405 29.6286 8.09259 29.604 8.03551C29.5793 7.97843 29.5435 7.92691 29.4985 7.884C29.4537 7.84003 29.4003 7.80588 29.3416 7.78372C29.283 7.76155 29.2203 7.75186 29.1577 7.75526L25.7969 7.89563L21.2181 0.226037C21.1792 0.161254 21.1251 0.106924 21.0606 0.0677361C20.996 0.0285477 20.9229 0.00567774 20.8476 0.00109947C20.7723 -0.00347881 20.697 0.0103721 20.6282 0.0414571C20.5594 0.0725421 20.4991 0.119928 20.4527 0.179525L14.4186 7.96125L6.77912 7.21372C6.70779 7.20725 6.63593 7.21712 6.56898 7.24259C6.50203 7.26806 6.44175 7.30846 6.39271 7.36074C6.34397 7.41355 6.30812 7.47696 6.28797 7.54599C6.26783 7.61502 6.26394 7.68779 6.27662 7.75859L6.79985 10.698H4.5668C4.48531 10.6978 4.40521 10.7192 4.33459 10.7599C4.26396 10.8006 4.2053 10.8593 4.16452 10.9299C4.12373 11.0006 4.10227 11.0808 4.10229 11.1624C4.10231 11.244 4.12381 11.3242 4.16463 11.3949L7.2642 16.7937L0.0899161 26.6244C0.0406866 26.6917 0.0104046 26.7709 0.00223958 26.8539C-0.00592548 26.9369 0.00832661 27.0205 0.0435041 27.0961C0.0786817 27.1716 0.133491 27.2363 0.202196 27.2834C0.270901 27.3305 0.350975 27.3582 0.434036 27.3636L10.6971 28.0431L12.5902 31.8363C12.6273 31.9102 12.6833 31.9728 12.7525 32.0179C12.8217 32.063 12.9016 32.0889 12.9841 32.093L14.4061 32.1569L17.9245 39.7318C17.9591 39.8066 18.013 39.8707 18.0806 39.9176C18.1483 39.9644 18.2272 39.9924 18.3092 39.9985C18.3214 39.9993 18.3336 39.9993 18.3457 39.9985C18.4217 39.9983 18.4965 39.9796 18.5636 39.9438C18.6306 39.908 18.6879 39.8564 18.7305 39.7933L24.7065 30.9285H28.7166C28.827 30.9287 28.9339 30.8894 29.0179 30.8177C29.102 30.746 29.1577 30.6465 29.1751 30.5373L29.4239 28.9708L36.4025 28.6095C36.4812 28.6055 36.5576 28.5814 36.6245 28.5396C36.6914 28.4978 36.7465 28.4397 36.7848 28.3706C36.823 28.3016 36.8431 28.2239 36.8431 28.145C36.8431 28.066 36.823 27.9883 36.7847 27.9193L32.5856 20.3278L37.929 12.0353C37.972 11.969 37.9972 11.8929 38.0025 11.8141C38.0077 11.7353 37.9927 11.6564 37.9589 11.5851H37.9556ZM36.6512 12.1441L29.9562 17.0445L29.4587 11.2728L36.6512 12.1441ZM20.2006 33.2882L15.3357 27.8661L22.2023 28.3147L20.2006 33.2882ZM7.34298 8.45378L16.9502 16.0503L11.4434 19.6567L7.72607 11.4264C7.76215 11.3773 7.78807 11.3214 7.80231 11.262C7.81655 11.2027 7.81882 11.1411 7.80899 11.0809L7.34298 8.45378ZM28.8144 11.0585L25.0424 20.5088L17.7835 16.0578L28.7141 8.80429V10.7744C28.7153 10.8775 28.7509 10.9772 28.8153 11.0577L28.8144 11.0585ZM17.5032 16.434L24.7173 20.8577L15.1325 27.0912L17.5032 16.434ZM16.9974 16.5735L14.7071 26.8661L11.6391 20.0844L16.9974 16.5735ZM15.4949 27.4093L24.6991 21.4242L22.3773 27.8595L15.4949 27.4093ZM29.03 11.7678L29.5151 17.3684L25.6684 20.1833L29.03 11.7678ZM27.9778 8.73203L17.6956 15.5528L18.9892 9.75032L25.1875 8.67056C25.2323 8.72521 25.2892 8.76867 25.3537 8.7975C25.4181 8.82633 25.4884 8.83974 25.559 8.83668L27.9778 8.73203ZM18.6732 9.03851L16.6409 6.60989L20.2487 1.95863L18.6732 9.03851ZM24.9221 8.24281L19.0995 9.26028L20.8408 1.4146L24.9221 8.24281ZM14.5819 8.90728C14.6604 8.91491 14.7395 8.90262 14.812 8.87156C14.8844 8.84049 14.9479 8.79165 14.9965 8.72954L16.3515 6.98531L18.548 9.60995L17.2039 15.6533L7.83635 8.24863L14.5819 8.90728ZM5.36864 11.6283H7.30732L10.6789 19.0861L8.26588 16.9141C8.29034 16.8036 8.27322 16.688 8.21779 16.5893L5.36864 11.6283ZM8.02209 17.3227L10.96 19.9681L1.90753 25.7075L8.02209 17.3227ZM1.52278 26.5015L11.2452 20.3377L14.4211 27.3636H11.3887C11.3508 27.2977 11.2974 27.2421 11.233 27.2017C11.1687 27.1613 11.0954 27.1373 11.0197 27.1319L1.52278 26.5015ZM13.2975 31.1744L11.6275 27.8288H14.5446L14.4808 31.23L13.2975 31.1744ZM15.1276 31.5066C15.0888 31.4231 15.0254 31.3535 14.946 31.3072L15.0048 28.1884L20.0132 33.7691L18.315 38.3664L15.1276 31.5066ZM19.1011 37.5781L20.4917 33.8048L22.5141 28.7806L24.117 30.1502C24.0999 30.1668 24.0841 30.1845 24.0697 30.2034L19.1011 37.5781ZM24.6568 29.9974L22.7247 28.3479L28.5192 28.7266L28.3161 29.9991L24.6568 29.9974ZM28.9985 28.0597C28.9273 28.0641 28.858 28.0852 28.7963 28.1211C28.7346 28.1569 28.682 28.2067 28.6428 28.2665L22.8599 27.8886L25.2712 21.2049L35.3137 27.7332L28.9985 28.0597ZM35.3071 27.1709L25.5606 20.8403L29.7149 17.797L31.608 20.1442C31.5837 20.2071 31.5733 20.2745 31.5776 20.3417C31.5819 20.409 31.6008 20.4745 31.6329 20.5338L35.3071 27.1709ZM31.8667 19.7206L30.0906 17.5254L36.1363 13.0976L31.8667 19.7206Z" fill="currentColor"/>
</mask>
<path d="M37.9556 11.5851C37.9223 11.5135 37.8713 11.4517 37.8075 11.4055C37.7436 11.3592 37.669 11.3301 37.5907 11.321L29.642 10.3616V8.21624C29.6415 8.15405 29.6286 8.09259 29.604 8.03551C29.5793 7.97843 29.5435 7.92691 29.4985 7.884C29.4537 7.84003 29.4003 7.80588 29.3416 7.78372C29.283 7.76155 29.2203 7.75186 29.1577 7.75526L25.7969 7.89563L21.2181 0.226037C21.1792 0.161254 21.1251 0.106924 21.0606 0.0677361C20.996 0.0285477 20.9229 0.00567774 20.8476 0.00109947C20.7723 -0.00347881 20.697 0.0103721 20.6282 0.0414571C20.5594 0.0725421 20.4991 0.119928 20.4527 0.179525L14.4186 7.96125L6.77912 7.21372C6.70779 7.20725 6.63593 7.21712 6.56898 7.24259C6.50203 7.26806 6.44175 7.30846 6.39271 7.36074C6.34397 7.41355 6.30812 7.47696 6.28797 7.54599C6.26783 7.61502 6.26394 7.68779 6.27662 7.75859L6.79985 10.698H4.5668C4.48531 10.6978 4.40521 10.7192 4.33459 10.7599C4.26396 10.8006 4.2053 10.8593 4.16452 10.9299C4.12373 11.0006 4.10227 11.0808 4.10229 11.1624C4.10231 11.244 4.12381 11.3242 4.16463 11.3949L7.2642 16.7937L0.0899161 26.6244C0.0406866 26.6917 0.0104046 26.7709 0.00223958 26.8539C-0.00592548 26.9369 0.00832661 27.0205 0.0435041 27.0961C0.0786817 27.1716 0.133491 27.2363 0.202196 27.2834C0.270901 27.3305 0.350975 27.3582 0.434036 27.3636L10.6971 28.0431L12.5902 31.8363C12.6273 31.9102 12.6833 31.9728 12.7525 32.0179C12.8217 32.063 12.9016 32.0889 12.9841 32.093L14.4061 32.1569L17.9245 39.7318C17.9591 39.8066 18.013 39.8707 18.0806 39.9176C18.1483 39.9644 18.2272 39.9924 18.3092 39.9985C18.3214 39.9993 18.3336 39.9993 18.3457 39.9985C18.4217 39.9983 18.4965 39.9796 18.5636 39.9438C18.6306 39.908 18.6879 39.8564 18.7305 39.7933L24.7065 30.9285H28.7166C28.827 30.9287 28.9339 30.8894 29.0179 30.8177C29.102 30.746 29.1577 30.6465 29.1751 30.5373L29.4239 28.9708L36.4025 28.6095C36.4812 28.6055 36.5576 28.5814 36.6245 28.5396C36.6914 28.4978 36.7465 28.4397 36.7848 28.3706C36.823 28.3016 36.8431 28.2239 36.8431 28.145C36.8431 28.066 36.823 27.9883 36.7847 27.9193L32.5856 20.3278L37.929 12.0353C37.972 11.969 37.9972 11.8929 38.0025 11.8141C38.0077 11.7353 37.9927 11.6564 37.9589 11.5851H37.9556ZM36.6512 12.1441L29.9562 17.0445L29.4587 11.2728L36.6512 12.1441ZM20.2006 33.2882L15.3357 27.8661L22.2023 28.3147L20.2006 33.2882ZM7.34298 8.45378L16.9502 16.0503L11.4434 19.6567L7.72607 11.4264C7.76215 11.3773 7.78807 11.3214 7.80231 11.262C7.81655 11.2027 7.81882 11.1411 7.80899 11.0809L7.34298 8.45378ZM28.8144 11.0585L25.0424 20.5088L17.7835 16.0578L28.7141 8.80429V10.7744C28.7153 10.8775 28.7509 10.9772 28.8153 11.0577L28.8144 11.0585ZM17.5032 16.434L24.7173 20.8577L15.1325 27.0912L17.5032 16.434ZM16.9974 16.5735L14.7071 26.8661L11.6391 20.0844L16.9974 16.5735ZM15.4949 27.4093L24.6991 21.4242L22.3773 27.8595L15.4949 27.4093ZM29.03 11.7678L29.5151 17.3684L25.6684 20.1833L29.03 11.7678ZM27.9778 8.73203L17.6956 15.5528L18.9892 9.75032L25.1875 8.67056C25.2323 8.72521 25.2892 8.76867 25.3537 8.7975C25.4181 8.82633 25.4884 8.83974 25.559 8.83668L27.9778 8.73203ZM18.6732 9.03851L16.6409 6.60989L20.2487 1.95863L18.6732 9.03851ZM24.9221 8.24281L19.0995 9.26028L20.8408 1.4146L24.9221 8.24281ZM14.5819 8.90728C14.6604 8.91491 14.7395 8.90262 14.812 8.87156C14.8844 8.84049 14.9479 8.79165 14.9965 8.72954L16.3515 6.98531L18.548 9.60995L17.2039 15.6533L7.83635 8.24863L14.5819 8.90728ZM5.36864 11.6283H7.30732L10.6789 19.0861L8.26588 16.9141C8.29034 16.8036 8.27322 16.688 8.21779 16.5893L5.36864 11.6283ZM8.02209 17.3227L10.96 19.9681L1.90753 25.7075L8.02209 17.3227ZM1.52278 26.5015L11.2452 20.3377L14.4211 27.3636H11.3887C11.3508 27.2977 11.2974 27.2421 11.233 27.2017C11.1687 27.1613 11.0954 27.1373 11.0197 27.1319L1.52278 26.5015ZM13.2975 31.1744L11.6275 27.8288H14.5446L14.4808 31.23L13.2975 31.1744ZM15.1276 31.5066C15.0888 31.4231 15.0254 31.3535 14.946 31.3072L15.0048 28.1884L20.0132 33.7691L18.315 38.3664L15.1276 31.5066ZM19.1011 37.5781L20.4917 33.8048L22.5141 28.7806L24.117 30.1502C24.0999 30.1668 24.0841 30.1845 24.0697 30.2034L19.1011 37.5781ZM24.6568 29.9974L22.7247 28.3479L28.5192 28.7266L28.3161 29.9991L24.6568 29.9974ZM28.9985 28.0597C28.9273 28.0641 28.858 28.0852 28.7963 28.1211C28.7346 28.1569 28.682 28.2067 28.6428 28.2665L22.8599 27.8886L25.2712 21.2049L35.3137 27.7332L28.9985 28.0597ZM35.3071 27.1709L25.5606 20.8403L29.7149 17.797L31.608 20.1442C31.5837 20.2071 31.5733 20.2745 31.5776 20.3417C31.5819 20.409 31.6008 20.4745 31.6329 20.5338L35.3071 27.1709ZM31.8667 19.7206L30.0906 17.5254L36.1363 13.0976L31.8667 19.7206Z" fill="currentColor"/>
<path d="M37.9556 11.5851C37.9223 11.5135 37.8713 11.4517 37.8075 11.4055C37.7436 11.3592 37.669 11.3301 37.5907 11.321L29.642 10.3616V8.21624C29.6415 8.15405 29.6286 8.09259 29.604 8.03551C29.5793 7.97843 29.5435 7.92691 29.4985 7.884C29.4537 7.84003 29.4003 7.80588 29.3416 7.78372C29.283 7.76155 29.2203 7.75186 29.1577 7.75526L25.7969 7.89563L21.2181 0.226037C21.1792 0.161254 21.1251 0.106924 21.0606 0.0677361C20.996 0.0285477 20.9229 0.00567774 20.8476 0.00109947C20.7723 -0.00347881 20.697 0.0103721 20.6282 0.0414571C20.5594 0.0725421 20.4991 0.119928 20.4527 0.179525L14.4186 7.96125L6.77912 7.21372C6.70779 7.20725 6.63593 7.21712 6.56898 7.24259C6.50203 7.26806 6.44175 7.30846 6.39271 7.36074C6.34397 7.41355 6.30812 7.47696 6.28797 7.54599C6.26783 7.61502 6.26394 7.68779 6.27662 7.75859L6.79985 10.698H4.5668C4.48531 10.6978 4.40521 10.7192 4.33459 10.7599C4.26396 10.8006 4.2053 10.8593 4.16452 10.9299C4.12373 11.0006 4.10227 11.0808 4.10229 11.1624C4.10231 11.244 4.12381 11.3242 4.16463 11.3949L7.2642 16.7937L0.0899161 26.6244C0.0406866 26.6917 0.0104046 26.7709 0.00223958 26.8539C-0.00592548 26.9369 0.00832661 27.0205 0.0435041 27.0961C0.0786817 27.1716 0.133491 27.2363 0.202196 27.2834C0.270901 27.3305 0.350975 27.3582 0.434036 27.3636L10.6971 28.0431L12.5902 31.8363C12.6273 31.9102 12.6833 31.9728 12.7525 32.0179C12.8217 32.063 12.9016 32.0889 12.9841 32.093L14.4061 32.1569L17.9245 39.7318C17.9591 39.8066 18.013 39.8707 18.0806 39.9176C18.1483 39.9644 18.2272 39.9924 18.3092 39.9985C18.3214 39.9993 18.3336 39.9993 18.3457 39.9985C18.4217 39.9983 18.4965 39.9796 18.5636 39.9438C18.6306 39.908 18.6879 39.8564 18.7305 39.7933L24.7065 30.9285H28.7166C28.827 30.9287 28.9339 30.8894 29.0179 30.8177C29.102 30.746 29.1577 30.6465 29.1751 30.5373L29.4239 28.9708L36.4025 28.6095C36.4812 28.6055 36.5576 28.5814 36.6245 28.5396C36.6914 28.4978 36.7465 28.4397 36.7848 28.3706C36.823 28.3016 36.8431 28.2239 36.8431 28.145C36.8431 28.066 36.823 27.9883 36.7847 27.9193L32.5856 20.3278L37.929 12.0353C37.972 11.969 37.9972 11.8929 38.0025 11.8141C38.0077 11.7353 37.9927 11.6564 37.9589 11.5851H37.9556ZM36.6512 12.1441L29.9562 17.0445L29.4587 11.2728L36.6512 12.1441ZM20.2006 33.2882L15.3357 27.8661L22.2023 28.3147L20.2006 33.2882ZM7.34298 8.45378L16.9502 16.0503L11.4434 19.6567L7.72607 11.4264C7.76215 11.3773 7.78807 11.3214 7.80231 11.262C7.81655 11.2027 7.81882 11.1411 7.80899 11.0809L7.34298 8.45378ZM28.8144 11.0585L25.0424 20.5088L17.7835 16.0578L28.7141 8.80429V10.7744C28.7153 10.8775 28.7509 10.9772 28.8153 11.0577L28.8144 11.0585ZM17.5032 16.434L24.7173 20.8577L15.1325 27.0912L17.5032 16.434ZM16.9974 16.5735L14.7071 26.8661L11.6391 20.0844L16.9974 16.5735ZM15.4949 27.4093L24.6991 21.4242L22.3773 27.8595L15.4949 27.4093ZM29.03 11.7678L29.5151 17.3684L25.6684 20.1833L29.03 11.7678ZM27.9778 8.73203L17.6956 15.5528L18.9892 9.75032L25.1875 8.67056C25.2323 8.72521 25.2892 8.76867 25.3537 8.7975C25.4181 8.82633 25.4884 8.83974 25.559 8.83668L27.9778 8.73203ZM18.6732 9.03851L16.6409 6.60989L20.2487 1.95863L18.6732 9.03851ZM24.9221 8.24281L19.0995 9.26028L20.8408 1.4146L24.9221 8.24281ZM14.5819 8.90728C14.6604 8.91491 14.7395 8.90262 14.812 8.87156C14.8844 8.84049 14.9479 8.79165 14.9965 8.72954L16.3515 6.98531L18.548 9.60995L17.2039 15.6533L7.83635 8.24863L14.5819 8.90728ZM5.36864 11.6283H7.30732L10.6789 19.0861L8.26588 16.9141C8.29034 16.8036 8.27322 16.688 8.21779 16.5893L5.36864 11.6283ZM8.02209 17.3227L10.96 19.9681L1.90753 25.7075L8.02209 17.3227ZM1.52278 26.5015L11.2452 20.3377L14.4211 27.3636H11.3887C11.3508 27.2977 11.2974 27.2421 11.233 27.2017C11.1687 27.1613 11.0954 27.1373 11.0197 27.1319L1.52278 26.5015ZM13.2975 31.1744L11.6275 27.8288H14.5446L14.4808 31.23L13.2975 31.1744ZM15.1276 31.5066C15.0888 31.4231 15.0254 31.3535 14.946 31.3072L15.0048 28.1884L20.0132 33.7691L18.315 38.3664L15.1276 31.5066ZM19.1011 37.5781L20.4917 33.8048L22.5141 28.7806L24.117 30.1502C24.0999 30.1668 24.0841 30.1845 24.0697 30.2034L19.1011 37.5781ZM24.6568 29.9974L22.7247 28.3479L28.5192 28.7266L28.3161 29.9991L24.6568 29.9974ZM28.9985 28.0597C28.9273 28.0641 28.858 28.0852 28.7963 28.1211C28.7346 28.1569 28.682 28.2067 28.6428 28.2665L22.8599 27.8886L25.2712 21.2049L35.3137 27.7332L28.9985 28.0597ZM35.3071 27.1709L25.5606 20.8403L29.7149 17.797L31.608 20.1442C31.5837 20.2071 31.5733 20.2745 31.5776 20.3417C31.5819 20.409 31.6008 20.4745 31.6329 20.5338L35.3071 27.1709ZM31.8667 19.7206L30.0906 17.5254L36.1363 13.0976L31.8667 19.7206Z" fill="currentColor" stroke="currentColor" stroke-width="0.4" mask="url(#path-1-outside-1_820_93876)"/>
</g>
<defs>
<clipPath id="clip0_820_93876">
<rect width="38" height="40" fill="currentColor"/>
</clipPath>
</defs>
</svg>
