<svg width="59" height="34" viewBox="0 0 59 34" fill="none" xmlns="http://www.w3.org/2000/svg">
<g clip-path="url(#clip0_851_65683)">
<path d="M37.4591 1.82502C36.7242 1.82255 36.0048 2.02607 35.3826 2.41246C34.7616 2.79684 34.2635 3.34796 33.9472 4.00044L26.0869 18.2294L21.8786 10.6024C21.5369 9.92522 20.9509 9.39975 20.2382 9.12714L20.2381 9.1271C19.5231 8.85412 18.731 8.85412 18.016 9.1271L18.0159 9.12714C17.3032 9.39973 16.7173 9.92515 16.3755 10.6022L5.56991 30.1314H2.35185C2.06281 30.1314 1.825 30.3622 1.825 30.6532C1.825 30.7922 1.88185 30.9262 1.9802 31.0231L1.98139 31.0242C2.07969 31.1193 2.21219 31.175 2.35185 31.175H58.6481C58.7878 31.175 58.9203 31.1193 59.0186 31.0243L59.0198 31.0231C59.1181 30.9262 59.175 30.7922 59.175 30.6532C59.175 30.5132 59.1175 30.3815 59.021 30.2845L59.0186 30.2822C58.9203 30.1871 58.7878 30.1314 58.6481 30.1314H55.4301L40.9785 4.00031C40.6608 3.34635 40.1613 2.79658 39.5393 2.41113C38.9157 2.02469 38.1951 1.82255 37.4591 1.82502ZM37.4591 1.82502C37.4593 1.82502 37.4595 1.82502 37.4597 1.82502L37.4591 2.00002L37.4585 1.82502C37.4587 1.82502 37.4589 1.82502 37.4591 1.82502ZM29.3421 14.502L30.4127 14.9402C30.4128 14.9402 30.4128 14.9402 30.4128 14.9402C33.0851 16.0287 35.6125 15.9368 37.4798 14.7537L37.4806 14.7532C39.6996 13.3638 42.5544 13.2746 45.5208 14.483L29.3421 14.502ZM29.3421 14.502L34.8767 4.48387L35.0184 4.22722C35.343 3.70962 35.8308 3.30691 36.4124 3.08241C37.0831 2.82427 37.8287 2.82422 38.5008 3.08241C39.1715 3.34052 39.7195 3.83901 40.0341 4.47667L40.0339 4.47676L40.0379 4.48402L45.5898 14.511M29.3421 14.502L45.5898 14.511M45.5898 14.511L45.521 14.4831L45.5898 14.511ZM16.5487 20.3543C17.6406 20.3735 18.7145 20.0744 19.6355 19.4952L19.6367 19.4944C20.9829 18.6319 22.8549 18.5664 24.8166 19.3702L24.8174 19.3706L25.7237 19.7363L31.4748 30.1252H6.77167L12.7108 19.3943L13.4863 19.7088C13.4867 19.709 13.4871 19.7091 13.4875 19.7093C14.4555 20.1191 15.4964 20.3379 16.5487 20.3543ZM16.5487 20.3543C16.5487 20.3543 16.5486 20.3543 16.5485 20.3543L16.5516 20.1794L16.5489 20.3543C16.5488 20.3543 16.5488 20.3543 16.5487 20.3543ZM54.227 30.1326H32.7148L26.689 19.2849L28.8325 15.4131L30.0028 15.888C31.2698 16.4316 32.6325 16.7235 34.0142 16.7475L34.0145 16.7475C35.4366 16.7703 36.8345 16.3821 38.0368 15.6322L38.0372 15.632C39.9335 14.4423 42.4399 14.3639 45.1124 15.4451C45.1126 15.4452 45.1127 15.4452 45.1129 15.4453L46.3859 15.9702L54.227 30.1326ZM20.9173 11.0871L24.8993 18.2831C22.7459 17.4912 20.6783 17.5934 19.0497 18.6154L19.0483 18.6163C17.7021 19.4788 15.8375 19.5444 13.8678 18.7475L13.865 18.7464L13.2212 18.4988L17.2843 11.0852L17.258 11.0654L17.2867 11.0794C17.5072 10.63 17.8919 10.278 18.3635 10.0968L18.3638 10.0967C18.8372 9.91416 19.3616 9.91416 19.835 10.0967C20.3083 10.2792 20.6929 10.6302 20.9133 11.0794L20.9131 11.0795L20.9173 11.0871Z" fill="currentColor" stroke="currentColor" stroke-width="0.35"/>
</g>
<defs>
<clipPath id="clip0_851_65683">
<rect width="59" height="34" fill="currentColor"/>
</clipPath>
</defs>
</svg>
