<svg width="38" height="37" viewBox="0 0 38 37" fill="none" xmlns="http://www.w3.org/2000/svg">
<path d="M19.5005 32.9745C10.9676 32.9745 4.02637 26.0326 4.02637 17.5005C4.02637 8.96829 10.9676 2.02637 19.5005 2.02637C28.0333 2.02637 34.9745 8.9676 34.9745 17.5005C34.9745 26.0333 28.0326 32.9745 19.5005 32.9745ZM19.5005 2.80007C11.3945 2.80007 4.79938 9.39452 4.79938 17.5005C4.79938 25.6064 11.3938 32.2008 19.4991 32.2008C27.6043 32.2008 34.2002 25.6064 34.2002 17.5005C34.2002 9.39452 27.6057 2.79938 19.5005 2.79938V2.80007Z" fill="currentColor" stroke="currentColor" stroke-miterlimit="10"/>
<path d="M26.4264 30.9158L19.5045 19.1016L12.7864 30.9117L12.1143 30.529L19.4949 17.5542L27.0937 30.5248L26.4264 30.9158Z" fill="currentColor" stroke="currentColor" stroke-miterlimit="10"/>
</svg>
