<svg width="37" height="42" viewBox="0 0 37 42" fill="none" xmlns="http://www.w3.org/2000/svg">
<path d="M3.60938 13.089H3.35072L3.47918 13.3135L18.3694 39.3352L18.4996 39.5628L18.6298 39.3352L33.5201 13.3135L33.6485 13.089H33.3899H3.60938ZM5.1915 14.1396H31.8487L18.4998 37.4159L5.1915 14.1396Z" fill="currentColor" stroke="currentColor" stroke-width="0.3"/>
<path d="M4.34641 30.8001L11.343 26.7336H25.7385L32.6936 30.7999L32.8221 30.875L32.8982 30.7471L33.2705 30.1216L33.3478 29.9917L33.2173 29.9154L26.2618 25.8489L19.0631 13.2411V5.06567V4.91567H18.9131H18.1272H17.9772V5.06567V13.2408L10.7789 25.7652L3.78205 29.8318L3.65214 29.9073L3.72786 30.0371L4.14148 30.746L4.21694 30.8753L4.34641 30.8001ZM12.0985 25.6413L18.4999 14.417L24.9411 25.6413H12.0985Z" fill="currentColor" stroke="currentColor" stroke-width="0.3"/>
<path d="M3.53387 13.1095L3.45937 13.1529V13.2391V30.5869V30.6731L3.53387 30.7165L18.4241 39.3904L18.4996 39.4344L18.5751 39.3904L33.4654 30.7165L33.5399 30.6731V30.5869V13.2391V13.1529L33.4654 13.1095L18.5751 4.43557L18.4996 4.39159L18.4241 4.43557L3.53387 13.1095ZM18.4996 5.65621L32.454 13.784V30.042L18.4996 38.1698L4.54525 30.042V13.784L18.4996 5.65621Z" fill="currentColor" stroke="currentColor" stroke-width="0.3"/>
</svg>
