<svg width="35" height="35" viewBox="0 0 35 35" fill="none" xmlns="http://www.w3.org/2000/svg">
<circle cx="17" cy="17" r="12" fill="white"/>
<path fill-rule="evenodd" clip-rule="evenodd" d="M17 9.5C17.4602 9.5 17.8333 9.8731 17.8333 10.3333V16.1667H23.6667C24.1269 16.1667 24.5 16.5398 24.5 17C24.5 17.4602 24.1269 17.8333 23.6667 17.8333H17.8333V23.6667C17.8333 24.1269 17.4602 24.5 17 24.5C16.5398 24.5 16.1667 24.1269 16.1667 23.6667V17.8333H10.3333C9.8731 17.8333 9.5 17.4602 9.5 17C9.5 16.5398 9.8731 16.1667 10.3333 16.1667H16.1667V10.3333C16.1667 9.8731 16.5398 9.5 17 9.5Z" fill="#B9B9BA"/>
</svg>
