<svg width="175" height="33" viewBox="0 0 175 33" fill="none" xmlns="http://www.w3.org/2000/svg">
<path d="M1.04425 10.8797H3.68166L6.14502 17.6138H6.18519L8.62178 10.8797H11.2726V20.3583H9.59909V12.7406H9.57231L6.69393 20.3583H5.51579L2.67757 12.7406H2.65079V20.3583H1.04425V10.8797ZM17.2023 19.5416H17.1622C17.0015 19.8272 16.7427 20.0637 16.3857 20.2512C16.0287 20.4297 15.6226 20.5189 15.1674 20.5189C14.9086 20.5189 14.6363 20.4832 14.3507 20.4118C14.074 20.3494 13.8152 20.2422 13.5742 20.0905C13.3422 19.9299 13.1458 19.7246 12.9852 19.4747C12.8334 19.2158 12.7576 18.899 12.7576 18.5241C12.7576 18.0422 12.8915 17.6584 13.1592 17.3728C13.4359 17.0872 13.7884 16.8685 14.2169 16.7168C14.6453 16.5651 15.1183 16.4669 15.636 16.4222C16.1626 16.3687 16.6758 16.3419 17.1756 16.3419V16.1813C17.1756 15.7796 17.0283 15.4851 16.7338 15.2977C16.4482 15.1013 16.1045 15.0031 15.7029 15.0031C15.3637 15.0031 15.038 15.0745 14.7256 15.2173C14.4132 15.3601 14.1544 15.5342 13.9491 15.7395L13.119 14.7622C13.485 14.423 13.9045 14.1686 14.3775 13.999C14.8595 13.8295 15.3459 13.7447 15.8368 13.7447C16.408 13.7447 16.8766 13.825 17.2425 13.9857C17.6174 14.1463 17.9119 14.3561 18.1261 14.6149C18.3403 14.8737 18.4876 15.1638 18.5679 15.4851C18.6572 15.8064 18.7018 16.1277 18.7018 16.449V20.3583H17.2023V19.5416ZM17.1756 17.4263H16.8141C16.5553 17.4263 16.283 17.4397 15.9974 17.4665C15.7118 17.4844 15.4485 17.5334 15.2076 17.6138C14.9666 17.6852 14.7658 17.7923 14.6051 17.9351C14.4444 18.069 14.3641 18.2564 14.3641 18.4974C14.3641 18.6491 14.3954 18.7785 14.4578 18.8856C14.5292 18.9838 14.6185 19.0641 14.7256 19.1266C14.8327 19.1891 14.9532 19.2337 15.0871 19.2605C15.2209 19.2872 15.3548 19.3006 15.4887 19.3006C16.0421 19.3006 16.4615 19.1534 16.7472 18.8588C17.0328 18.5643 17.1756 18.1627 17.1756 17.6539V17.4263ZM24.0275 15.6458C23.8847 15.4583 23.6884 15.2977 23.4385 15.1638C23.1886 15.021 22.9163 14.9496 22.6218 14.9496C22.363 14.9496 22.1265 15.0031 21.9123 15.1102C21.698 15.2173 21.5909 15.3958 21.5909 15.6458C21.5909 15.8957 21.707 16.0742 21.939 16.1813C22.18 16.2794 22.5281 16.3821 22.9833 16.4892C23.2243 16.5427 23.4652 16.6141 23.7062 16.7034C23.9561 16.7926 24.1793 16.9131 24.3756 17.0649C24.5809 17.2077 24.746 17.3906 24.871 17.6138C24.9959 17.828 25.0584 18.0913 25.0584 18.4036C25.0584 18.7964 24.9825 19.1311 24.8308 19.4077C24.688 19.6755 24.4916 19.8942 24.2417 20.0637C24.0008 20.2333 23.7151 20.3538 23.3849 20.4252C23.0636 20.5055 22.7289 20.5457 22.3808 20.5457C21.881 20.5457 21.3946 20.4565 20.9215 20.2779C20.4485 20.0905 20.0558 19.8272 19.7434 19.4881L20.8011 18.4974C20.9796 18.7294 21.2116 18.9213 21.4972 19.073C21.7828 19.2248 22.0997 19.3006 22.4478 19.3006C22.5638 19.3006 22.6798 19.2872 22.7958 19.2605C22.9208 19.2337 23.0324 19.1935 23.1305 19.14C23.2376 19.0775 23.3224 18.9972 23.3849 18.899C23.4474 18.8008 23.4786 18.6803 23.4786 18.5375C23.4786 18.2698 23.3537 18.0779 23.1038 17.9619C22.8628 17.8458 22.4969 17.7298 22.006 17.6138C21.765 17.5602 21.5285 17.4933 21.2964 17.4129C21.0733 17.3237 20.8725 17.2121 20.694 17.0783C20.5155 16.9354 20.3726 16.7614 20.2655 16.5561C20.1584 16.3508 20.1049 16.0965 20.1049 15.793C20.1049 15.436 20.1763 15.1281 20.3191 14.8693C20.4708 14.6104 20.6672 14.4007 20.9082 14.24C21.1491 14.0704 21.4214 13.9455 21.7248 13.8652C22.0283 13.7848 22.3407 13.7447 22.662 13.7447C23.1261 13.7447 23.5768 13.825 24.0141 13.9857C24.4604 14.1463 24.813 14.3918 25.0718 14.722L24.0275 15.6458ZM25.4645 15.2173V13.9321H26.5891V12.0712H28.1689V13.9321H29.7754V15.2173H28.1689V18.2028C28.1689 18.4884 28.218 18.725 28.3161 18.9124C28.4232 19.0998 28.6553 19.1935 29.0123 19.1935C29.1194 19.1935 29.2354 19.1846 29.3604 19.1668C29.4853 19.14 29.5969 19.1043 29.6951 19.0597L29.7486 20.3181C29.6058 20.3717 29.4363 20.4118 29.2399 20.4386C29.0435 20.4743 28.8561 20.4922 28.6776 20.4922C28.2492 20.4922 27.9011 20.4341 27.6334 20.3181C27.3656 20.1932 27.1514 20.028 26.9907 19.8228C26.839 19.6086 26.7319 19.3676 26.6694 19.0998C26.6159 18.8231 26.5891 18.5286 26.5891 18.2162V15.2173H25.4645ZM35.3962 16.5026C35.3962 16.2973 35.365 16.1009 35.3025 15.9135C35.249 15.7261 35.1597 15.561 35.0348 15.4182C34.9098 15.2754 34.7491 15.1638 34.5528 15.0835C34.3654 14.9942 34.1422 14.9496 33.8834 14.9496C33.4014 14.9496 32.9909 15.0969 32.6517 15.3914C32.3215 15.677 32.1385 16.0474 32.1028 16.5026H35.3962ZM37.0028 17.2255C37.0028 17.2969 37.0028 17.3683 37.0028 17.4397C37.0028 17.5111 36.9983 17.5825 36.9894 17.6539H32.1028C32.1207 17.886 32.1787 18.1002 32.2769 18.2965C32.384 18.484 32.5223 18.6491 32.6919 18.7919C32.8615 18.9258 33.0533 19.0329 33.2676 19.1132C33.4818 19.1935 33.7049 19.2337 33.9369 19.2337C34.3386 19.2337 34.6777 19.1623 34.9544 19.0195C35.2311 18.8678 35.4587 18.6625 35.6372 18.4036L36.7082 19.2605C36.0745 20.1173 35.1552 20.5457 33.9503 20.5457C33.4505 20.5457 32.9909 20.4698 32.5714 20.3181C32.1519 20.1575 31.786 19.9343 31.4736 19.6487C31.1701 19.3631 30.9291 19.015 30.7506 18.6045C30.5811 18.185 30.4963 17.7119 30.4963 17.1854C30.4963 16.6677 30.5811 16.1991 30.7506 15.7796C30.9291 15.3512 31.1701 14.9897 31.4736 14.6952C31.777 14.3918 32.134 14.1597 32.5446 13.999C32.9641 13.8295 33.4148 13.7447 33.8968 13.7447C34.343 13.7447 34.7536 13.8205 35.1285 13.9723C35.5123 14.1151 35.8425 14.3337 36.1192 14.6283C36.3958 14.9139 36.6101 15.2754 36.7618 15.7127C36.9224 16.1411 37.0028 16.6454 37.0028 17.2255ZM38.4917 13.9321H40.0313V15.0031H40.0581C40.2366 14.6283 40.4865 14.3248 40.8078 14.0928C41.1292 13.8607 41.504 13.7447 41.9324 13.7447C41.9949 13.7447 42.0618 13.7491 42.1332 13.7581C42.2046 13.7581 42.2671 13.767 42.3207 13.7848V15.2575C42.2136 15.2307 42.1199 15.2129 42.0395 15.204C41.9681 15.195 41.8967 15.1906 41.8253 15.1906C41.4594 15.1906 41.1649 15.2575 40.9417 15.3914C40.7186 15.5253 40.5445 15.6859 40.4196 15.8733C40.2946 16.0608 40.2099 16.2527 40.1652 16.449C40.1206 16.6454 40.0983 16.8016 40.0983 16.9176V20.3583H38.4917V13.9321ZM47.5912 16.5026C47.5912 16.2973 47.56 16.1009 47.4975 15.9135C47.4439 15.7261 47.3547 15.561 47.2297 15.4182C47.1048 15.2754 46.9441 15.1638 46.7478 15.0835C46.5603 14.9942 46.3372 14.9496 46.0784 14.9496C45.5964 14.9496 45.1858 15.0969 44.8467 15.3914C44.5165 15.677 44.3335 16.0474 44.2978 16.5026H47.5912ZM49.1977 17.2255C49.1977 17.2969 49.1977 17.3683 49.1977 17.4397C49.1977 17.5111 49.1933 17.5825 49.1844 17.6539H44.2978C44.3156 17.886 44.3736 18.1002 44.4718 18.2965C44.5789 18.484 44.7173 18.6491 44.8868 18.7919C45.0564 18.9258 45.2483 19.0329 45.4625 19.1132C45.6767 19.1935 45.8999 19.2337 46.1319 19.2337C46.5336 19.2337 46.8727 19.1623 47.1494 19.0195C47.4261 18.8678 47.6537 18.6625 47.8322 18.4036L48.9032 19.2605C48.2695 20.1173 47.3502 20.5457 46.1453 20.5457C45.6455 20.5457 45.1858 20.4698 44.7664 20.3181C44.3469 20.1575 43.9809 19.9343 43.6686 19.6487C43.3651 19.3631 43.1241 19.015 42.9456 18.6045C42.776 18.185 42.6912 17.7119 42.6912 17.1854C42.6912 16.6677 42.776 16.1991 42.9456 15.7796C43.1241 15.3512 43.3651 14.9897 43.6686 14.6952C43.972 14.3918 44.329 14.1597 44.7396 13.999C45.1591 13.8295 45.6098 13.7447 46.0918 13.7447C46.538 13.7447 46.9486 13.8205 47.3234 13.9723C47.7072 14.1151 48.0375 14.3337 48.3141 14.6283C48.5908 14.9139 48.805 15.2754 48.9568 15.7127C49.1174 16.1411 49.1977 16.6454 49.1977 17.2255ZM57.22 20.3583H55.6938V19.3944H55.667C55.4439 19.7692 55.1315 20.0548 54.7298 20.2512C54.3371 20.4475 53.9132 20.5457 53.458 20.5457C52.9671 20.5457 52.5253 20.4565 52.1326 20.2779C51.7488 20.0905 51.4186 19.8451 51.1419 19.5416C50.8741 19.2292 50.6644 18.8678 50.5127 18.4572C50.3699 18.0377 50.2985 17.5915 50.2985 17.1184C50.2985 16.6454 50.3743 16.2036 50.5261 15.793C50.6778 15.3825 50.892 15.0254 51.1687 14.722C51.4454 14.4185 51.7756 14.182 52.1594 14.0124C52.5432 13.8339 52.9626 13.7447 53.4178 13.7447C53.7124 13.7447 53.9757 13.7804 54.2077 13.8518C54.4398 13.9143 54.6406 13.9946 54.8102 14.0928C54.9887 14.1909 55.1404 14.298 55.2654 14.4141C55.3903 14.5301 55.493 14.6417 55.5733 14.7488H55.6134V10.2371H57.22V20.3583ZM51.9318 17.1184C51.9318 17.3683 51.9675 17.6182 52.0389 17.8681C52.1192 18.118 52.2352 18.3412 52.387 18.5375C52.5387 18.7339 52.7306 18.8945 52.9626 19.0195C53.1947 19.1444 53.4669 19.2069 53.7793 19.2069C54.0738 19.2069 54.3371 19.1489 54.5692 19.0329C54.8012 18.9079 54.9976 18.7473 55.1583 18.5509C55.3278 18.3546 55.4528 18.1359 55.5331 17.8949C55.6224 17.645 55.667 17.3951 55.667 17.1452C55.667 16.8953 55.6224 16.6454 55.5331 16.3955C55.4528 16.1456 55.3278 15.9224 55.1583 15.7261C54.9976 15.5297 54.8012 15.3691 54.5692 15.2441C54.3371 15.1192 54.0738 15.0567 53.7793 15.0567C53.4669 15.0567 53.1947 15.1192 52.9626 15.2441C52.7306 15.3601 52.5387 15.5163 52.387 15.7127C52.2352 15.909 52.1192 16.1322 52.0389 16.3821C51.9675 16.6231 51.9318 16.8685 51.9318 17.1184ZM64.0182 10.2371V14.7488H64.0584C64.1387 14.6417 64.2413 14.5301 64.3663 14.4141C64.4912 14.298 64.6385 14.1909 64.8081 14.0928C64.9866 13.9946 65.1919 13.9143 65.4239 13.8518C65.656 13.7804 65.9193 13.7447 66.2138 13.7447C66.669 13.7447 67.0885 13.8339 67.4723 14.0124C67.856 14.182 68.1863 14.4185 68.463 14.722C68.7396 15.0254 68.9538 15.3825 69.1056 15.793C69.2573 16.2036 69.3332 16.6454 69.3332 17.1184C69.3332 17.5915 69.2573 18.0377 69.1056 18.4572C68.9628 18.8678 68.753 19.2292 68.4763 19.5416C68.2086 19.8451 67.8784 20.0905 67.4856 20.2779C67.1019 20.4565 66.6645 20.5457 66.1736 20.5457C65.7184 20.5457 65.29 20.4475 64.8884 20.2512C64.4957 20.0548 64.1878 19.7692 63.9646 19.3944H63.9379V20.3583H62.4116V10.2371H64.0182ZM67.6999 17.1184C67.6999 16.8685 67.6597 16.6231 67.5794 16.3821C67.508 16.1322 67.3964 15.909 67.2447 15.7127C67.0929 15.5163 66.901 15.3601 66.669 15.2441C66.4369 15.1192 66.1647 15.0567 65.8523 15.0567C65.5578 15.0567 65.2945 15.1192 65.0624 15.2441C64.8304 15.3691 64.6296 15.5297 64.46 15.7261C64.2993 15.9224 64.1744 16.1456 64.0851 16.3955C64.0048 16.6454 63.9646 16.8953 63.9646 17.1452C63.9646 17.3951 64.0048 17.645 64.0851 17.8949C64.1744 18.1359 64.2993 18.3546 64.46 18.5509C64.6296 18.7473 64.8304 18.9079 65.0624 19.0329C65.2945 19.1489 65.5578 19.2069 65.8523 19.2069C66.1647 19.2069 66.4369 19.1444 66.669 19.0195C66.901 18.8945 67.0929 18.7339 67.2447 18.5375C67.3964 18.3412 67.508 18.118 67.5794 17.8681C67.6597 17.6182 67.6999 17.3683 67.6999 17.1184ZM69.8522 13.9321H71.6327L73.4267 18.6045H73.4535L75.0466 13.9321H76.7201L73.6811 21.7372C73.5651 22.0318 73.4401 22.2906 73.3062 22.5137C73.1723 22.7458 73.0117 22.9377 72.8243 23.0894C72.6368 23.2501 72.4137 23.3705 72.1549 23.4509C71.905 23.5312 71.6015 23.5714 71.2445 23.5714C71.1106 23.5714 70.9723 23.5624 70.8295 23.5446C70.6956 23.5357 70.5573 23.5133 70.4144 23.4776L70.5483 22.0853C70.6554 22.121 70.7581 22.1433 70.8562 22.1522C70.9633 22.1701 71.0615 22.179 71.1508 22.179C71.3204 22.179 71.4632 22.1567 71.5792 22.1121C71.6952 22.0764 71.7934 22.0139 71.8737 21.9247C71.9541 21.8443 72.0255 21.7417 72.0879 21.6167C72.1504 21.4918 72.2173 21.3445 72.2887 21.1749L72.6101 20.3583L69.8522 13.9321Z" fill="#14141A"/>
<path d="M156.041 20.2368C156.041 20.4625 155.967 20.6882 155.821 20.9138C155.674 21.0643 155.454 21.2147 155.161 21.2147C154.868 21.2147 154.648 21.1395 154.501 20.9138C154.355 20.7634 154.281 20.5377 154.281 20.2368C154.281 20.0111 154.355 19.7855 154.501 19.5598C154.648 19.3341 154.868 19.2589 155.161 19.2589C155.454 19.2589 155.674 19.3341 155.821 19.5598C155.894 19.7855 156.041 20.0111 156.041 20.2368Z" fill="#14141A"/>
<path d="M159.705 11.1348H158.605V21.2899H159.705V11.1348Z" fill="#14141A"/>
<path d="M171.51 16.1747C171.51 16.927 171.363 17.604 171.143 18.2058C170.923 18.8076 170.557 19.3341 170.117 19.7855C169.677 20.2368 169.164 20.6129 168.504 20.8386C167.917 21.0643 167.184 21.2147 166.451 21.2147C165.718 21.2147 165.058 21.0643 164.472 20.8386C163.885 20.6129 163.372 20.2368 162.932 19.7855C162.492 19.3341 162.126 18.8076 161.906 18.2058C161.686 17.604 161.539 16.927 161.539 16.1747C161.539 15.4225 161.686 14.7455 161.906 14.1437C162.126 13.5419 162.492 13.0154 162.932 12.564C163.372 12.1127 163.885 11.7366 164.472 11.5109C165.131 11.21 165.791 11.1348 166.524 11.1348C167.258 11.1348 167.917 11.2852 168.577 11.5109C169.164 11.7366 169.75 12.1127 170.19 12.564C170.63 13.0154 170.997 13.5419 171.217 14.1437C171.437 14.7455 171.51 15.4225 171.51 16.1747ZM170.41 16.1747C170.41 15.5729 170.337 15.0464 170.117 14.595C169.97 14.0685 169.677 13.6924 169.31 13.3162C168.944 12.9401 168.577 12.6392 168.064 12.4136C167.624 12.1879 167.038 12.1127 166.451 12.1127C165.865 12.1127 165.351 12.1879 164.838 12.4136C164.398 12.6392 163.958 12.9401 163.665 13.3162C163.299 13.6924 163.079 14.1437 162.859 14.595C162.712 15.1216 162.565 15.6482 162.565 16.1747C162.565 16.7765 162.639 17.3031 162.859 17.7544C163.005 18.281 163.299 18.6571 163.665 19.0332C164.032 19.4093 164.398 19.7102 164.838 19.8607C165.278 20.0864 165.865 20.1616 166.451 20.1616C167.038 20.1616 167.551 20.0864 168.064 19.8607C168.504 19.635 168.944 19.3341 169.31 19.0332C169.677 18.6571 169.897 18.2058 170.117 17.7544C170.337 17.3031 170.41 16.7765 170.41 16.1747Z" fill="#14141A"/>
<path d="M132.14 6.62134H130.014V21.2147H132.14V6.62134Z" fill="#14141A"/>
<path d="M123.635 11.1348C120.922 11.1348 118.723 13.3915 118.723 16.1747C118.723 18.958 120.922 21.2147 123.635 21.2147C126.347 21.2147 128.547 18.958 128.547 16.1747C128.62 13.3915 126.347 11.1348 123.635 11.1348ZM123.635 19.2589C121.948 19.2589 120.629 17.9049 120.629 16.1747C120.629 14.4446 121.948 13.0906 123.635 13.0906C125.321 13.0906 126.641 14.4446 126.641 16.1747C126.641 17.9049 125.321 19.2589 123.635 19.2589Z" fill="#14141A"/>
<path d="M101.054 21.2147H98.9279C94.9689 21.2147 91.8164 17.9049 91.8164 13.918C91.8164 9.93117 94.9689 6.62134 98.9279 6.62134H101.054V21.2147Z" fill="#14141A"/>
<path d="M80.7461 6.62134H82.8722C86.8312 6.62134 89.9837 9.93117 89.9837 13.918C89.9837 17.9049 86.7579 21.2147 82.8722 21.2147H80.7461V6.62134Z" fill="#14141A"/>
<path d="M138.957 11.1347C137.931 11.1347 136.904 11.5109 136.098 12.0374V6.62134H133.898V21.2147H136.098V20.312C136.904 20.9138 137.857 21.2147 138.957 21.2147C141.67 21.2147 143.869 18.958 143.869 16.1747C143.869 13.3914 141.67 11.1347 138.957 11.1347ZM138.957 19.2589C137.637 19.2589 136.538 18.3562 136.098 17.1526C136.025 16.8517 135.951 16.5508 135.951 16.1747C135.951 15.8738 136.025 15.4977 136.098 15.1968C136.464 13.9932 137.637 13.0906 138.957 13.0906C140.57 13.0906 141.963 14.4446 141.963 16.1747C141.963 17.9049 140.57 19.2589 138.957 19.2589Z" fill="#14141A"/>
<path d="M110.511 6.62134H105.379V21.2147H110.511C114.47 21.2147 117.622 17.9049 117.622 13.918C117.622 9.93117 114.397 6.62134 110.511 6.62134ZM110.511 19.0332H107.505V8.80282H110.511C113.224 8.80282 115.496 11.0595 115.496 13.918C115.423 16.7765 113.224 19.0332 110.511 19.0332Z" fill="#14141A"/>
<path d="M151.788 11.1348L149.002 17.604L146.216 11.1348H143.797L147.756 20.3872L146.803 22.6439C146.51 23.2457 145.85 23.5466 145.263 23.2457L144.97 23.0953L144.09 25.1263L144.823 25.5024C146.216 26.1795 147.902 25.5024 148.489 24.0732C148.489 24.0732 153.621 12.3383 154.061 11.21H151.788V11.1348Z" fill="#14141A"/>
<path d="M160.146 7.52405C160.146 7.74972 160.073 7.97539 159.926 8.20106C159.78 8.3515 159.56 8.50195 159.266 8.50195C158.973 8.50195 158.753 8.42673 158.607 8.20106C158.46 8.05061 158.387 7.82494 158.387 7.52405C158.387 7.29838 158.46 7.07271 158.607 6.84704C158.753 6.62137 158.973 6.54614 159.266 6.54614C159.56 6.54614 159.78 6.62137 159.926 6.84704C160 7.07271 160.146 7.29838 160.146 7.52405Z" fill="#14141A"/>
</svg>
