<svg width="40" height="40" viewBox="0 0 40 40" fill="none" xmlns="http://www.w3.org/2000/svg">
<mask id="path-1-inside-1_916_80569" fill="currentColor">
<path fill-rule="evenodd" clip-rule="evenodd" d="M38.0413 10.0004C36.4826 10.0004 35.6762 10.9788 35.0898 11.6953C34.5462 12.3539 34.2639 12.6737 33.6572 12.6737C33.0506 12.6737 32.7645 12.3576 32.2254 11.6991C31.6383 10.9788 30.8371 10.0004 29.2777 10.0004C27.7188 10.0004 26.9177 10.978 26.3306 11.6944L26.3299 11.6953C25.7916 12.3539 25.504 12.6737 24.8981 12.6737C24.2922 12.6737 24.0091 12.3576 23.4663 11.6991C22.8791 10.9788 22.0742 10.0004 20.5185 10.0004C18.9628 10.0004 18.1579 10.9788 17.5693 11.6953C17.0302 12.3539 16.7434 12.6737 16.1374 12.6737C15.5315 12.6737 15.2485 12.3576 14.7109 11.6991C14.1237 10.9788 13.3226 10.0004 11.7631 10.0004C10.2043 10.0004 9.40318 10.978 8.8161 11.6944L8.81537 11.6953C8.27703 12.3539 7.98946 12.6737 7.3888 12.6737C6.78814 12.6737 6.49982 12.3576 5.95622 11.6991C5.36907 10.9788 4.56719 10.0004 3.00847 10.0004C2.87737 9.99674 2.74687 10.0195 2.62468 10.0673C2.50249 10.115 2.3911 10.1869 2.29709 10.2786C2.20307 10.3702 2.12835 10.4799 2.07732 10.601C2.02629 10.7221 2 10.8522 2 10.9837C2 11.1152 2.02629 11.2453 2.07732 11.3664C2.12835 11.4875 2.20307 11.5972 2.29709 11.6888C2.3911 11.7805 2.50249 11.8523 2.62468 11.9001C2.74687 11.9479 2.87737 11.9706 3.00847 11.967C3.61289 11.967 3.89745 12.2831 4.4403 12.9454L4.45535 12.9636C5.04403 13.6739 5.84179 14.6366 7.38805 14.6366C8.94687 14.6366 9.74799 13.659 10.3351 12.9426L10.3358 12.9417C10.8741 12.2831 11.1617 11.967 11.7624 11.967C12.363 11.967 12.6513 12.2831 13.1889 12.9454L13.1975 12.9558C13.7854 13.6669 14.587 14.6366 16.1427 14.6366C17.7026 14.6366 18.4999 13.6624 19.0859 12.9463L19.0897 12.9417C19.6288 12.2831 19.9156 11.967 20.5223 11.967C21.1289 11.967 21.4112 12.2831 21.9541 12.9454L21.9565 12.9483C22.5434 13.6638 23.3445 14.6404 24.9018 14.6404C26.4607 14.6404 27.2618 13.6627 27.8489 12.9463L27.8496 12.9454C28.3879 12.2869 28.6755 11.9708 29.2814 11.9708C29.8873 11.9708 30.1749 12.2869 30.714 12.9492L30.7144 12.9496C31.3007 13.6654 32.1026 14.6441 33.6655 14.6441C35.2287 14.6441 36.0306 13.6657 36.6177 12.9492C37.1606 12.2906 37.4437 11.9745 38.0496 11.9745C38.3107 11.9734 38.5608 11.8684 38.7447 11.6825C38.9286 11.4966 39.0312 11.2451 39.0301 10.9833C39.0291 10.7215 38.9243 10.4709 38.7388 10.2866C38.5534 10.1022 38.3025 9.99928 38.0413 10.0004ZM38.0391 18.1845C36.4803 18.1845 35.674 19.1629 35.0876 19.8795C34.544 20.538 34.2616 20.8579 33.655 20.8579C33.0483 20.8579 32.7622 20.5418 32.2232 19.8795L32.2208 19.8766C31.6338 19.1611 30.8328 18.1845 29.2754 18.1845C27.7166 18.1845 26.9155 19.1621 26.3284 19.8786L26.3277 19.8795C25.7893 20.538 25.5017 20.8579 24.8958 20.8579C24.2899 20.8579 24.0069 20.5418 23.464 19.8795L23.4625 19.8776C22.8755 19.162 22.0736 18.1845 20.5163 18.1845C18.9575 18.1845 18.1557 19.1629 17.5685 19.8795C17.0294 20.538 16.7426 20.8579 16.1367 20.8579C15.5308 20.8579 15.2477 20.5418 14.7101 19.8795L14.7077 19.8766C14.1208 19.1611 13.3197 18.1845 11.7624 18.1845C10.2035 18.1845 9.40242 19.1621 8.81534 19.8786L8.81462 19.8795C8.27627 20.538 7.98871 20.8579 7.38805 20.8579C6.78738 20.8579 6.49907 20.5418 5.95547 19.8795L5.9551 19.879C5.36874 19.1633 4.56686 18.1845 3.00847 18.1845C2.87737 18.1809 2.74687 18.2036 2.62468 18.2514C2.50249 18.2992 2.3911 18.371 2.29709 18.4627C2.20307 18.5544 2.12835 18.664 2.07732 18.7851C2.02629 18.9062 2 19.0364 2 19.1678C2 19.2993 2.02629 19.4294 2.07732 19.5506C2.12835 19.6717 2.20307 19.7813 2.29709 19.873C2.3911 19.9646 2.50249 20.0365 2.62468 20.0843C2.74687 20.132 2.87737 20.1548 3.00847 20.1512C3.61289 20.1512 3.89745 20.4673 4.4403 21.1258L4.44267 21.1287C5.0296 21.8442 5.83068 22.8207 7.38805 22.8207C8.94687 22.8207 9.74798 21.8431 10.3351 21.1267L10.3358 21.1258C10.8741 20.4673 11.1617 20.1512 11.7624 20.1512C12.363 20.1512 12.6513 20.4673 13.1889 21.1258L13.1893 21.1263C13.7757 21.842 14.5775 22.8207 16.1367 22.8207C17.6961 22.8207 18.4973 21.8423 19.0837 21.1258C19.6228 20.4673 19.9096 20.1512 20.5163 20.1512C21.1229 20.1512 21.4052 20.4673 21.9481 21.1258L21.9505 21.1287C22.5374 21.8442 23.3385 22.8207 24.8958 22.8207C26.4547 22.8207 27.2558 21.8431 27.8428 21.1267L27.8436 21.1258C28.3819 20.4673 28.6695 20.1512 29.2754 20.1512C29.8813 20.1512 30.1689 20.4673 30.708 21.1258L30.7084 21.1263C31.2947 21.842 32.0966 22.8207 33.6595 22.8207C35.2227 22.8207 36.0246 21.8423 36.6117 21.1258C37.1501 20.4673 37.4376 20.1512 38.0436 20.1512C38.1747 20.1545 38.3051 20.1314 38.4272 20.0834C38.5492 20.0353 38.6604 19.9632 38.7542 19.8713C38.848 19.7794 38.9225 19.6696 38.9733 19.5484C39.024 19.4272 39.05 19.297 39.0497 19.1655C39.0494 19.0341 39.0228 18.904 38.9715 18.783C38.9202 18.662 38.8452 18.5526 38.751 18.4611C38.6568 18.3697 38.5453 18.2981 38.423 18.2506C38.3007 18.203 38.1701 18.1806 38.0391 18.1845ZM35.0876 28.0591C35.674 27.3426 36.4803 26.3641 38.0391 26.3641V26.3626C38.1701 26.3587 38.3007 26.3812 38.423 26.4287C38.5453 26.4762 38.6568 26.5478 38.751 26.6392C38.8452 26.7307 38.9202 26.8401 38.9715 26.9611C39.0228 27.0821 39.0494 27.2122 39.0497 27.3436C39.05 27.4751 39.024 27.6053 38.9733 27.7265C38.9225 27.8477 38.848 27.9575 38.7542 28.0494C38.6604 28.1413 38.5492 28.2134 38.4272 28.2615C38.3051 28.3095 38.1747 28.3326 38.0436 28.3293C37.4376 28.3293 37.1546 28.6454 36.6117 29.3039C36.0246 30.0204 35.2227 30.9988 33.6595 30.9988C32.0963 30.9988 31.2944 30.0204 30.708 29.3039C30.1689 28.6454 29.8813 28.3293 29.2754 28.3293C28.6695 28.3293 28.3819 28.6454 27.8436 29.3039L27.8428 29.3048C27.2558 30.0212 26.4547 30.9988 24.8958 30.9988C23.3364 30.9988 22.5352 30.0204 21.9518 29.3039C21.409 28.6454 21.1267 28.3293 20.52 28.3293C19.9133 28.3293 19.6265 28.6454 19.0874 29.3039L19.0837 29.3085C18.4976 30.0246 17.7003 30.9988 16.1404 30.9988C14.5792 30.9988 13.7773 30.0229 13.1889 29.3066L13.1867 29.3039C12.6491 28.6454 12.3608 28.3293 11.7601 28.3293C11.1595 28.3293 10.8719 28.6454 10.3335 29.3039L10.3328 29.3048C9.74574 30.0212 8.94462 30.9988 7.38579 30.9988C5.83263 30.9988 5.03466 30.0283 4.44743 29.3141L4.4403 29.3054C3.89745 28.6469 3.61289 28.3308 3.00847 28.3308C2.87737 28.3344 2.74687 28.3117 2.62468 28.2639C2.50249 28.2161 2.3911 28.1442 2.29709 28.0526C2.20307 27.9609 2.12835 27.8513 2.07732 27.7302C2.02629 27.6091 2 27.4789 2 27.3474C2 27.216 2.02629 27.0858 2.07732 26.9647C2.12835 26.8436 2.20307 26.734 2.29709 26.6423C2.3911 26.5506 2.50249 26.4788 2.62468 26.431C2.74687 26.3832 2.87737 26.3605 3.00847 26.3641C4.56686 26.3641 5.36874 27.3429 5.9551 28.0586L5.95547 28.0591C6.49907 28.7176 6.78738 29.033 7.38805 29.033C7.98871 29.033 8.27627 28.7176 8.81462 28.0591L8.81534 28.0582C9.40243 27.3417 10.2035 26.3641 11.7624 26.3641C13.3197 26.3641 14.1208 27.3407 14.7077 28.0562L14.7101 28.0591C15.2477 28.7176 15.5308 29.033 16.1367 29.033C16.7426 29.033 17.0294 28.7176 17.5685 28.0591C18.1557 27.3426 18.9575 26.3641 20.5163 26.3641C22.0736 26.3641 22.8755 27.3416 23.4625 28.0572L23.464 28.0591C24.0069 28.7176 24.2899 29.033 24.8958 29.033C25.5017 29.033 25.7893 28.7176 26.3277 28.0591L26.3284 28.0582C26.9155 27.3417 27.7166 26.3641 29.2754 26.3641C30.8328 26.3641 31.6338 27.3407 32.2208 28.0562L32.2232 28.0591C32.7622 28.7176 33.0483 29.033 33.655 29.033C34.2616 29.033 34.544 28.7176 35.0876 28.0591Z"/>
</mask>
<path fill-rule="evenodd" clip-rule="evenodd" d="M38.0413 10.0004C36.4826 10.0004 35.6762 10.9788 35.0898 11.6953C34.5462 12.3539 34.2639 12.6737 33.6572 12.6737C33.0506 12.6737 32.7645 12.3576 32.2254 11.6991C31.6383 10.9788 30.8371 10.0004 29.2777 10.0004C27.7188 10.0004 26.9177 10.978 26.3306 11.6944L26.3299 11.6953C25.7916 12.3539 25.504 12.6737 24.8981 12.6737C24.2922 12.6737 24.0091 12.3576 23.4663 11.6991C22.8791 10.9788 22.0742 10.0004 20.5185 10.0004C18.9628 10.0004 18.1579 10.9788 17.5693 11.6953C17.0302 12.3539 16.7434 12.6737 16.1374 12.6737C15.5315 12.6737 15.2485 12.3576 14.7109 11.6991C14.1237 10.9788 13.3226 10.0004 11.7631 10.0004C10.2043 10.0004 9.40318 10.978 8.8161 11.6944L8.81537 11.6953C8.27703 12.3539 7.98946 12.6737 7.3888 12.6737C6.78814 12.6737 6.49982 12.3576 5.95622 11.6991C5.36907 10.9788 4.56719 10.0004 3.00847 10.0004C2.87737 9.99674 2.74687 10.0195 2.62468 10.0673C2.50249 10.115 2.3911 10.1869 2.29709 10.2786C2.20307 10.3702 2.12835 10.4799 2.07732 10.601C2.02629 10.7221 2 10.8522 2 10.9837C2 11.1152 2.02629 11.2453 2.07732 11.3664C2.12835 11.4875 2.20307 11.5972 2.29709 11.6888C2.3911 11.7805 2.50249 11.8523 2.62468 11.9001C2.74687 11.9479 2.87737 11.9706 3.00847 11.967C3.61289 11.967 3.89745 12.2831 4.4403 12.9454L4.45535 12.9636C5.04403 13.6739 5.84179 14.6366 7.38805 14.6366C8.94687 14.6366 9.74799 13.659 10.3351 12.9426L10.3358 12.9417C10.8741 12.2831 11.1617 11.967 11.7624 11.967C12.363 11.967 12.6513 12.2831 13.1889 12.9454L13.1975 12.9558C13.7854 13.6669 14.587 14.6366 16.1427 14.6366C17.7026 14.6366 18.4999 13.6624 19.0859 12.9463L19.0897 12.9417C19.6288 12.2831 19.9156 11.967 20.5223 11.967C21.1289 11.967 21.4112 12.2831 21.9541 12.9454L21.9565 12.9483C22.5434 13.6638 23.3445 14.6404 24.9018 14.6404C26.4607 14.6404 27.2618 13.6627 27.8489 12.9463L27.8496 12.9454C28.3879 12.2869 28.6755 11.9708 29.2814 11.9708C29.8873 11.9708 30.1749 12.2869 30.714 12.9492L30.7144 12.9496C31.3007 13.6654 32.1026 14.6441 33.6655 14.6441C35.2287 14.6441 36.0306 13.6657 36.6177 12.9492C37.1606 12.2906 37.4437 11.9745 38.0496 11.9745C38.3107 11.9734 38.5608 11.8684 38.7447 11.6825C38.9286 11.4966 39.0312 11.2451 39.0301 10.9833C39.0291 10.7215 38.9243 10.4709 38.7388 10.2866C38.5534 10.1022 38.3025 9.99928 38.0413 10.0004ZM38.0391 18.1845C36.4803 18.1845 35.674 19.1629 35.0876 19.8795C34.544 20.538 34.2616 20.8579 33.655 20.8579C33.0483 20.8579 32.7622 20.5418 32.2232 19.8795L32.2208 19.8766C31.6338 19.1611 30.8328 18.1845 29.2754 18.1845C27.7166 18.1845 26.9155 19.1621 26.3284 19.8786L26.3277 19.8795C25.7893 20.538 25.5017 20.8579 24.8958 20.8579C24.2899 20.8579 24.0069 20.5418 23.464 19.8795L23.4625 19.8776C22.8755 19.162 22.0736 18.1845 20.5163 18.1845C18.9575 18.1845 18.1557 19.1629 17.5685 19.8795C17.0294 20.538 16.7426 20.8579 16.1367 20.8579C15.5308 20.8579 15.2477 20.5418 14.7101 19.8795L14.7077 19.8766C14.1208 19.1611 13.3197 18.1845 11.7624 18.1845C10.2035 18.1845 9.40242 19.1621 8.81534 19.8786L8.81462 19.8795C8.27627 20.538 7.98871 20.8579 7.38805 20.8579C6.78738 20.8579 6.49907 20.5418 5.95547 19.8795L5.9551 19.879C5.36874 19.1633 4.56686 18.1845 3.00847 18.1845C2.87737 18.1809 2.74687 18.2036 2.62468 18.2514C2.50249 18.2992 2.3911 18.371 2.29709 18.4627C2.20307 18.5544 2.12835 18.664 2.07732 18.7851C2.02629 18.9062 2 19.0364 2 19.1678C2 19.2993 2.02629 19.4294 2.07732 19.5506C2.12835 19.6717 2.20307 19.7813 2.29709 19.873C2.3911 19.9646 2.50249 20.0365 2.62468 20.0843C2.74687 20.132 2.87737 20.1548 3.00847 20.1512C3.61289 20.1512 3.89745 20.4673 4.4403 21.1258L4.44267 21.1287C5.0296 21.8442 5.83068 22.8207 7.38805 22.8207C8.94687 22.8207 9.74798 21.8431 10.3351 21.1267L10.3358 21.1258C10.8741 20.4673 11.1617 20.1512 11.7624 20.1512C12.363 20.1512 12.6513 20.4673 13.1889 21.1258L13.1893 21.1263C13.7757 21.842 14.5775 22.8207 16.1367 22.8207C17.6961 22.8207 18.4973 21.8423 19.0837 21.1258C19.6228 20.4673 19.9096 20.1512 20.5163 20.1512C21.1229 20.1512 21.4052 20.4673 21.9481 21.1258L21.9505 21.1287C22.5374 21.8442 23.3385 22.8207 24.8958 22.8207C26.4547 22.8207 27.2558 21.8431 27.8428 21.1267L27.8436 21.1258C28.3819 20.4673 28.6695 20.1512 29.2754 20.1512C29.8813 20.1512 30.1689 20.4673 30.708 21.1258L30.7084 21.1263C31.2947 21.842 32.0966 22.8207 33.6595 22.8207C35.2227 22.8207 36.0246 21.8423 36.6117 21.1258C37.1501 20.4673 37.4376 20.1512 38.0436 20.1512C38.1747 20.1545 38.3051 20.1314 38.4272 20.0834C38.5492 20.0353 38.6604 19.9632 38.7542 19.8713C38.848 19.7794 38.9225 19.6696 38.9733 19.5484C39.024 19.4272 39.05 19.297 39.0497 19.1655C39.0494 19.0341 39.0228 18.904 38.9715 18.783C38.9202 18.662 38.8452 18.5526 38.751 18.4611C38.6568 18.3697 38.5453 18.2981 38.423 18.2506C38.3007 18.203 38.1701 18.1806 38.0391 18.1845ZM35.0876 28.0591C35.674 27.3426 36.4803 26.3641 38.0391 26.3641V26.3626C38.1701 26.3587 38.3007 26.3812 38.423 26.4287C38.5453 26.4762 38.6568 26.5478 38.751 26.6392C38.8452 26.7307 38.9202 26.8401 38.9715 26.9611C39.0228 27.0821 39.0494 27.2122 39.0497 27.3436C39.05 27.4751 39.024 27.6053 38.9733 27.7265C38.9225 27.8477 38.848 27.9575 38.7542 28.0494C38.6604 28.1413 38.5492 28.2134 38.4272 28.2615C38.3051 28.3095 38.1747 28.3326 38.0436 28.3293C37.4376 28.3293 37.1546 28.6454 36.6117 29.3039C36.0246 30.0204 35.2227 30.9988 33.6595 30.9988C32.0963 30.9988 31.2944 30.0204 30.708 29.3039C30.1689 28.6454 29.8813 28.3293 29.2754 28.3293C28.6695 28.3293 28.3819 28.6454 27.8436 29.3039L27.8428 29.3048C27.2558 30.0212 26.4547 30.9988 24.8958 30.9988C23.3364 30.9988 22.5352 30.0204 21.9518 29.3039C21.409 28.6454 21.1267 28.3293 20.52 28.3293C19.9133 28.3293 19.6265 28.6454 19.0874 29.3039L19.0837 29.3085C18.4976 30.0246 17.7003 30.9988 16.1404 30.9988C14.5792 30.9988 13.7773 30.0229 13.1889 29.3066L13.1867 29.3039C12.6491 28.6454 12.3608 28.3293 11.7601 28.3293C11.1595 28.3293 10.8719 28.6454 10.3335 29.3039L10.3328 29.3048C9.74574 30.0212 8.94462 30.9988 7.38579 30.9988C5.83263 30.9988 5.03466 30.0283 4.44743 29.3141L4.4403 29.3054C3.89745 28.6469 3.61289 28.3308 3.00847 28.3308C2.87737 28.3344 2.74687 28.3117 2.62468 28.2639C2.50249 28.2161 2.3911 28.1442 2.29709 28.0526C2.20307 27.9609 2.12835 27.8513 2.07732 27.7302C2.02629 27.6091 2 27.4789 2 27.3474C2 27.216 2.02629 27.0858 2.07732 26.9647C2.12835 26.8436 2.20307 26.734 2.29709 26.6423C2.3911 26.5506 2.50249 26.4788 2.62468 26.431C2.74687 26.3832 2.87737 26.3605 3.00847 26.3641C4.56686 26.3641 5.36874 27.3429 5.9551 28.0586L5.95547 28.0591C6.49907 28.7176 6.78738 29.033 7.38805 29.033C7.98871 29.033 8.27627 28.7176 8.81462 28.0591L8.81534 28.0582C9.40243 27.3417 10.2035 26.3641 11.7624 26.3641C13.3197 26.3641 14.1208 27.3407 14.7077 28.0562L14.7101 28.0591C15.2477 28.7176 15.5308 29.033 16.1367 29.033C16.7426 29.033 17.0294 28.7176 17.5685 28.0591C18.1557 27.3426 18.9575 26.3641 20.5163 26.3641C22.0736 26.3641 22.8755 27.3416 23.4625 28.0572L23.464 28.0591C24.0069 28.7176 24.2899 29.033 24.8958 29.033C25.5017 29.033 25.7893 28.7176 26.3277 28.0591L26.3284 28.0582C26.9155 27.3417 27.7166 26.3641 29.2754 26.3641C30.8328 26.3641 31.6338 27.3407 32.2208 28.0562L32.2232 28.0591C32.7622 28.7176 33.0483 29.033 33.655 29.033C34.2616 29.033 34.544 28.7176 35.0876 28.0591Z" fill="currentColor"/>
<path d="M35.0898 11.6953L35.2055 11.7908L35.2059 11.7903L35.0898 11.6953ZM38.0413 10.0004V10.1504L38.0419 10.1504L38.0413 10.0004ZM32.2254 11.6991L32.1091 11.7938L32.1093 11.7941L32.2254 11.6991ZM26.3306 11.6944L26.4467 11.7895L26.4467 11.7895L26.3306 11.6944ZM26.3299 11.6953L26.2139 11.6002L26.2138 11.6004L26.3299 11.6953ZM23.4663 11.6991L23.35 11.7938L23.3505 11.7945L23.4663 11.6991ZM17.5693 11.6953L17.4534 11.6001L17.4532 11.6003L17.5693 11.6953ZM14.7109 11.6991L14.5946 11.7938L14.5947 11.7939L14.7109 11.6991ZM8.8161 11.6944L8.93211 11.7895L8.93212 11.7895L8.8161 11.6944ZM8.81537 11.6953L8.69936 11.6002L8.69923 11.6004L8.81537 11.6953ZM5.95622 11.6991L5.83995 11.7938L5.84054 11.7946L5.95622 11.6991ZM3.00847 10.0004L3.00431 10.1504H3.00847V10.0004ZM2.62468 10.0673L2.57005 9.92757V9.92757L2.62468 10.0673ZM2.29709 10.2786L2.40181 10.386L2.40181 10.386L2.29709 10.2786ZM2.07732 10.601L1.93909 10.5427H1.93909L2.07732 10.601ZM2.07732 11.3664L1.93909 11.4247L1.93909 11.4247L2.07732 11.3664ZM2.29709 11.6888L2.19237 11.7962H2.19237L2.29709 11.6888ZM2.62468 11.9001L2.57005 12.0398L2.62468 11.9001ZM3.00847 11.967V11.817L3.00431 11.8171L3.00847 11.967ZM4.4403 12.9454L4.32429 13.0405L4.32481 13.0411L4.4403 12.9454ZM4.45535 12.9636L4.57084 12.8679L4.57084 12.8679L4.45535 12.9636ZM10.3351 12.9426L10.4511 13.0376L10.4512 13.0375L10.3351 12.9426ZM10.3358 12.9417L10.4519 13.0367L10.4519 13.0366L10.3358 12.9417ZM13.1889 12.9454L13.0725 13.04L13.0733 13.041L13.1889 12.9454ZM13.1975 12.9558L13.3131 12.8602L13.3131 12.8602L13.1975 12.9558ZM19.0859 12.9463L19.202 13.0413L19.202 13.0413L19.0859 12.9463ZM19.0897 12.9417L18.9736 12.8467L18.9736 12.8467L19.0897 12.9417ZM21.9541 12.9454L21.8381 13.0405L21.8381 13.0406L21.9541 12.9454ZM21.9565 12.9483L22.0724 12.8532L22.0724 12.8532L21.9565 12.9483ZM27.8489 12.9463L27.733 12.8511L27.7328 12.8512L27.8489 12.9463ZM27.8496 12.9454L27.9655 13.0407L27.9657 13.0404L27.8496 12.9454ZM30.714 12.9492L30.5977 13.0439L30.5981 13.0444L30.714 12.9492ZM30.7144 12.9496L30.8304 12.8546L30.8302 12.8544L30.7144 12.9496ZM36.6177 12.9492L36.502 12.8538L36.5017 12.8541L36.6177 12.9492ZM38.0496 11.9745V12.1245L38.0502 12.1245L38.0496 11.9745ZM38.7447 11.6825L38.638 11.577V11.577L38.7447 11.6825ZM39.0301 10.9833L38.8801 10.9839V10.9839L39.0301 10.9833ZM38.7388 10.2866L38.6331 10.3929L38.7388 10.2866ZM35.0876 19.8795L35.2032 19.9749L35.2036 19.9745L35.0876 19.8795ZM38.0391 18.1845V18.3346L38.0435 18.3345L38.0391 18.1845ZM32.2232 19.8795L32.3395 19.7848L32.3391 19.7843L32.2232 19.8795ZM32.2208 19.8766L32.3368 19.7814L32.3368 19.7814L32.2208 19.8766ZM26.3284 19.8786L26.2124 19.7835L26.2124 19.7835L26.3284 19.8786ZM26.3277 19.8795L26.2116 19.7844L26.2115 19.7845L26.3277 19.8795ZM23.464 19.8795L23.58 19.7844L23.58 19.7843L23.464 19.8795ZM23.4625 19.8776L23.3465 19.9727L23.3465 19.9727L23.4625 19.8776ZM17.5685 19.8795L17.4525 19.7844L17.4524 19.7844L17.5685 19.8795ZM14.7101 19.8795L14.8266 19.7849L14.8261 19.7843L14.7101 19.8795ZM14.7077 19.8766L14.5918 19.9717L14.5918 19.9717L14.7077 19.8766ZM8.81534 19.8786L8.69932 19.7835L8.69928 19.7835L8.81534 19.8786ZM8.81462 19.8795L8.69856 19.7844L8.69848 19.7845L8.81462 19.8795ZM5.95547 19.8795L6.07142 19.7843L6.07134 19.7842L5.95547 19.8795ZM5.9551 19.879L5.83907 19.9741L5.83923 19.9743L5.9551 19.879ZM3.00847 18.1845L3.00431 18.3345H3.00847V18.1845ZM2.29709 18.4627L2.19237 18.3553H2.19237L2.29709 18.4627ZM2.07732 18.7851L2.21555 18.8434L2.07732 18.7851ZM2.07732 19.5506L2.21555 19.4923L2.07732 19.5506ZM2.29709 19.873L2.40181 19.7656H2.40181L2.29709 19.873ZM3.00847 20.1512V20.0011L3.00431 20.0012L3.00847 20.1512ZM4.4403 21.1258L4.55628 21.0307L4.55604 21.0304L4.4403 21.1258ZM4.44267 21.1287L4.32669 21.2238L4.3267 21.2238L4.44267 21.1287ZM10.3351 21.1267L10.4511 21.2218L10.4511 21.2218L10.3351 21.1267ZM10.3358 21.1258L10.4518 21.2209L10.4519 21.2208L10.3358 21.1258ZM13.1889 21.1258L13.0727 21.2207L13.073 21.221L13.1889 21.1258ZM13.1893 21.1263L13.3053 21.0312L13.3053 21.0311L13.1893 21.1263ZM19.0837 21.1258L18.9676 21.0308L18.9676 21.0308L19.0837 21.1258ZM21.9481 21.1258L22.0641 21.0307L22.0638 21.0304L21.9481 21.1258ZM21.9505 21.1287L21.8345 21.2238L21.8345 21.2238L21.9505 21.1287ZM27.8428 21.1267L27.9589 21.2218L27.9589 21.2218L27.8428 21.1267ZM27.8436 21.1258L27.9596 21.2209L27.9597 21.2208L27.8436 21.1258ZM30.708 21.1258L30.5919 21.2208L30.5921 21.2211L30.708 21.1258ZM30.7084 21.1263L30.8244 21.0312L30.8242 21.031L30.7084 21.1263ZM36.6117 21.1258L36.7278 21.2209L36.7279 21.2208L36.6117 21.1258ZM38.0436 20.1512L38.0474 20.0012H38.0436V20.1512ZM38.7542 19.8713L38.8592 19.9784V19.9784L38.7542 19.8713ZM38.9733 19.5484L38.8349 19.4905V19.4905L38.9733 19.5484ZM38.9715 18.783L39.1096 18.7244V18.7244L38.9715 18.783ZM38.751 18.4611L38.8555 18.3535V18.3535L38.751 18.4611ZM38.423 18.2506L38.4773 18.1107V18.1107L38.423 18.2506ZM38.0391 26.3641V26.5141H38.1891V26.3641H38.0391ZM35.0876 28.0591L35.2032 28.1545L35.2036 28.1541L35.0876 28.0591ZM38.0391 26.3626L38.0346 26.2127L37.8891 26.217V26.3626H38.0391ZM38.423 26.4287L38.4773 26.2888L38.4773 26.2888L38.423 26.4287ZM38.751 26.6392L38.8555 26.5316V26.5316L38.751 26.6392ZM38.9715 26.9611L39.1096 26.9025V26.9025L38.9715 26.9611ZM38.7542 28.0494L38.8592 28.1565V28.1565L38.7542 28.0494ZM38.4272 28.2615L38.3722 28.1219H38.3722L38.4272 28.2615ZM38.0436 28.3293L38.0474 28.1793H38.0436V28.3293ZM36.6117 29.3039L36.496 29.2085L36.4957 29.2088L36.6117 29.3039ZM30.708 29.3039L30.8241 29.2089L30.824 29.2089L30.708 29.3039ZM27.8436 29.3039L27.9596 29.399L27.9597 29.3989L27.8436 29.3039ZM27.8428 29.3048L27.9589 29.3999L27.9589 29.3999L27.8428 29.3048ZM21.9518 29.3039L22.0682 29.2092L22.0676 29.2085L21.9518 29.3039ZM19.0874 29.3039L18.9714 29.2089L18.9714 29.2089L19.0874 29.3039ZM19.0837 29.3085L18.9676 29.2135L18.9676 29.2135L19.0837 29.3085ZM13.1889 29.3066L13.0729 29.4018L13.073 29.4018L13.1889 29.3066ZM13.1867 29.3039L13.0705 29.3988L13.0708 29.3991L13.1867 29.3039ZM10.3335 29.3039L10.4495 29.3991L10.4497 29.3989L10.3335 29.3039ZM10.3328 29.3048L10.2169 29.2096L10.2168 29.2097L10.3328 29.3048ZM4.44743 29.3141L4.33157 29.4094L4.33157 29.4094L4.44743 29.3141ZM4.4403 29.3054L4.55617 29.2102L4.55604 29.21L4.4403 29.3054ZM3.00847 28.3308V28.1807L3.00431 28.1808L3.00847 28.3308ZM2.29709 28.0526L2.40181 27.9452L2.29709 28.0526ZM2.07732 27.7302L2.21555 27.6719L2.21555 27.6719L2.07732 27.7302ZM2.07732 26.9647L2.21555 27.023H2.21555L2.07732 26.9647ZM2.29709 26.6423L2.40181 26.7497L2.29709 26.6423ZM3.00847 26.3641L3.00431 26.5141H3.00847V26.3641ZM5.9551 28.0586L5.83907 28.1537L5.83932 28.154L5.9551 28.0586ZM5.95547 28.0591L5.83969 28.1544L5.83979 28.1545L5.95547 28.0591ZM8.81462 28.0591L8.69862 27.964L8.69848 27.9641L8.81462 28.0591ZM8.81534 28.0582L8.93134 28.1533L8.93137 28.1532L8.81534 28.0582ZM14.7077 28.0562L14.5918 28.1513L14.5918 28.1513L14.7077 28.0562ZM14.7101 28.0591L14.8263 27.9642L14.8261 27.9639L14.7101 28.0591ZM17.5685 28.0591L17.4525 27.964L17.4524 27.964L17.5685 28.0591ZM23.4625 28.0572L23.3465 28.1523L23.3466 28.1524L23.4625 28.0572ZM23.464 28.0591L23.3481 28.1543L23.3483 28.1545L23.464 28.0591ZM26.3277 28.0591L26.2115 27.9641L26.2115 27.9641L26.3277 28.0591ZM26.3284 28.0582L26.2124 27.9631L26.2123 27.9632L26.3284 28.0582ZM32.2208 28.0562L32.3368 27.9611L32.3368 27.961L32.2208 28.0562ZM32.2232 28.0591L32.3392 27.964L32.3392 27.964L32.2232 28.0591ZM35.2059 11.7903C35.7929 11.0731 36.5591 10.1504 38.0413 10.1504V9.85038C36.4061 9.85038 35.5595 10.8845 34.9737 11.6003L35.2059 11.7903ZM33.6572 12.8237C33.9931 12.8237 34.2471 12.7332 34.4877 12.5511C34.7188 12.3761 34.9368 12.1163 35.2055 11.7908L34.9741 11.5998C34.6992 11.9329 34.5042 12.1623 34.3066 12.3119C34.1185 12.4543 33.9281 12.5237 33.6572 12.5237V12.8237ZM32.1093 11.7941C32.3762 12.1201 32.5939 12.379 32.8259 12.5533C33.067 12.7345 33.3219 12.8237 33.6572 12.8237V12.5237C33.3859 12.5237 33.1944 12.455 33.0061 12.3134C32.8085 12.165 32.6137 11.9366 32.3415 11.6041L32.1093 11.7941ZM29.2777 10.1504C30.7604 10.1504 31.5213 11.0727 32.1091 11.7938L32.3417 11.6043C31.7552 10.8849 30.9139 9.85038 29.2777 9.85038V10.1504ZM26.4467 11.7895C27.0346 11.072 27.7955 10.1504 29.2777 10.1504V9.85038C27.6422 9.85038 26.8008 10.884 26.2146 11.5993L26.4467 11.7895ZM26.4459 11.7904L26.4467 11.7895L26.2146 11.5993L26.2139 11.6002L26.4459 11.7904ZM24.8981 12.8237C25.2335 12.8237 25.4886 12.7333 25.7297 12.5512C25.9617 12.376 26.1796 12.1162 26.446 11.7902L26.2138 11.6004C25.9419 11.933 25.7468 12.1624 25.5489 12.3118C25.3602 12.4543 25.1686 12.5237 24.8981 12.5237V12.8237ZM23.3505 11.7945C23.619 12.1202 23.837 12.3791 24.0683 12.5532C24.309 12.7344 24.563 12.8237 24.8981 12.8237V12.5237C24.6272 12.5237 24.4368 12.455 24.2487 12.3135C24.0513 12.165 23.8564 11.9365 23.582 11.6037L23.3505 11.7945ZM20.5185 10.1504C21.9975 10.1504 22.7622 11.0728 23.35 11.7938L23.5825 11.6043C22.996 10.8848 22.1509 9.85038 20.5185 9.85038V10.1504ZM17.6852 11.7905C18.2747 11.0729 19.0394 10.1504 20.5185 10.1504V9.85038C18.8862 9.85038 18.0411 10.8847 17.4534 11.6001L17.6852 11.7905ZM16.1374 12.8237C16.4728 12.8237 16.7278 12.7332 16.9688 12.5512C17.2007 12.376 17.4186 12.1162 17.6853 11.7903L17.4532 11.6003C17.1809 11.933 16.9858 12.1624 16.788 12.3118C16.5994 12.4543 16.408 12.5237 16.1374 12.5237V12.8237ZM14.5947 11.7939C14.8606 12.1198 15.0773 12.3788 15.3081 12.5531C15.5483 12.7344 15.8024 12.8237 16.1374 12.8237V12.5237C15.8666 12.5237 15.6762 12.455 15.4889 12.3136C15.2924 12.1652 15.0987 11.9369 14.8271 11.6042L14.5947 11.7939ZM11.7631 10.1504C13.2458 10.1504 14.0068 11.0727 14.5946 11.7938L14.8271 11.6043C14.2407 10.8849 13.3993 9.85038 11.7631 9.85038V10.1504ZM8.93212 11.7895C9.52005 11.072 10.2809 10.1504 11.7631 10.1504V9.85038C10.1277 9.85038 9.2863 10.884 8.70007 11.5993L8.93212 11.7895ZM8.93138 11.7904L8.93211 11.7895L8.70008 11.5993L8.69936 11.6002L8.93138 11.7904ZM7.3888 12.8237C7.72185 12.8237 7.97571 12.7331 8.21602 12.5511C8.44723 12.3759 8.66505 12.1162 8.9315 11.7902L8.69923 11.6004C8.42734 11.933 8.23222 12.1624 8.03489 12.3119C7.84666 12.4545 7.6564 12.5237 7.3888 12.5237V12.8237ZM5.84054 11.7946C6.10966 12.1206 6.32902 12.3793 6.56111 12.5534C6.80228 12.7342 7.05613 12.8237 7.3888 12.8237V12.5237C7.12081 12.5237 6.93017 12.4552 6.74111 12.3134C6.54297 12.1647 6.34638 11.9361 6.0719 11.6036L5.84054 11.7946ZM3.00847 10.1504C4.49046 10.1504 5.25213 11.0728 5.83995 11.7938L6.07248 11.6043C5.48601 10.8849 4.64392 9.85038 3.00847 9.85038V10.1504ZM2.67931 10.207C2.78279 10.1665 2.8933 10.1472 3.00431 10.1503L3.01263 9.85043C2.86144 9.84624 2.71094 9.87247 2.57005 9.92757L2.67931 10.207ZM2.40181 10.386C2.48147 10.3083 2.57583 10.2474 2.67931 10.207L2.57005 9.92757C2.42916 9.98266 2.30074 10.0655 2.19237 10.1712L2.40181 10.386ZM2.21555 10.6592C2.25881 10.5565 2.32215 10.4636 2.40181 10.386L2.19237 10.1712C2.084 10.2768 1.99788 10.4032 1.93909 10.5427L2.21555 10.6592ZM2.15 10.9837C2.15 10.8722 2.17229 10.7619 2.21555 10.6592L1.93909 10.5427C1.88029 10.6823 1.85 10.8322 1.85 10.9837H2.15ZM2.21555 11.3082C2.17229 11.2055 2.15 11.0952 2.15 10.9837H1.85C1.85 11.1352 1.88029 11.2851 1.93909 11.4247L2.21555 11.3082ZM2.40181 11.5814C2.32215 11.5038 2.25881 11.4108 2.21555 11.3082L1.93909 11.4247C1.99788 11.5642 2.084 11.6906 2.19237 11.7962L2.40181 11.5814ZM2.67931 11.7604C2.57583 11.72 2.48147 11.6591 2.40181 11.5814L2.19237 11.7962C2.30074 11.9019 2.42916 11.9847 2.57005 12.0398L2.67931 11.7604ZM3.00431 11.8171C2.8933 11.8201 2.78279 11.8009 2.67931 11.7604L2.57005 12.0398C2.71094 12.0949 2.86144 12.1211 3.01263 12.117L3.00431 11.8171ZM4.55631 12.8503C4.28769 12.5226 4.06939 12.2628 3.8378 12.0881C3.59691 11.9064 3.34288 11.817 3.00847 11.817V12.117C3.27848 12.117 3.46894 12.1857 3.65715 12.3276C3.85465 12.4766 4.05006 12.7059 4.32429 13.0405L4.55631 12.8503ZM4.57084 12.8679L4.55579 12.8497L4.32481 13.0411L4.33985 13.0593L4.57084 12.8679ZM7.38805 14.4866C5.91784 14.4866 5.16029 13.5792 4.57084 12.8679L4.33985 13.0593C4.92776 13.7687 5.76574 14.7866 7.38805 14.7866V14.4866ZM10.219 12.8475C9.63111 13.565 8.87025 14.4866 7.38805 14.4866V14.7866C9.0235 14.7866 9.86486 13.753 10.4511 13.0376L10.219 12.8475ZM10.2197 12.8467L10.219 12.8476L10.4512 13.0375L10.4519 13.0367L10.2197 12.8467ZM11.7624 11.817C11.4297 11.817 11.1759 11.9065 10.9355 12.0876C10.7041 12.2618 10.4862 12.5206 10.2197 12.8467L10.4519 13.0366C10.7237 12.7041 10.9188 12.4757 11.1159 12.3272C11.304 12.1856 11.4944 12.117 11.7624 12.117V11.817ZM13.3054 12.8509C13.0391 12.5228 12.8213 12.2629 12.5897 12.0881C12.349 11.9065 12.095 11.817 11.7624 11.817V12.117C12.0304 12.117 12.2208 12.1856 12.4089 12.3276C12.6061 12.4764 12.8012 12.7057 13.0725 13.04L13.3054 12.8509ZM13.3131 12.8602L13.3045 12.8499L13.0733 13.041L13.0819 13.0514L13.3131 12.8602ZM16.1427 14.4866C14.6632 14.4866 13.9017 13.5722 13.3131 12.8602L13.0819 13.0514C13.669 13.7616 14.5109 14.7866 16.1427 14.7866V14.4866ZM18.9698 12.8513C18.3831 13.5683 17.626 14.4866 16.1427 14.4866V14.7866C17.7791 14.7866 18.6167 13.7565 19.202 13.0413L18.9698 12.8513ZM18.9736 12.8467L18.9698 12.8513L19.202 13.0413L19.2058 13.0367L18.9736 12.8467ZM20.5223 11.817C20.1869 11.817 19.9319 11.9063 19.6906 12.0874C19.4584 12.2617 19.2405 12.5206 18.9736 12.8467L19.2058 13.0367C19.478 12.7041 19.673 12.4758 19.8707 12.3273C20.0592 12.1858 20.2509 12.117 20.5223 12.117V11.817ZM22.0701 12.8503C21.8016 12.5228 21.5838 12.2628 21.3525 12.0882C21.1118 11.9064 20.8577 11.817 20.5223 11.817V12.117C20.7935 12.117 20.9839 12.1857 21.1717 12.3276C21.3689 12.4765 21.5637 12.7058 21.8381 13.0405L22.0701 12.8503ZM22.0724 12.8532L22.07 12.8503L21.8381 13.0406L21.8405 13.0435L22.0724 12.8532ZM24.9018 14.4904C23.421 14.4904 22.6602 13.5697 22.0724 12.8532L21.8405 13.0435C22.4266 13.7579 23.2679 14.7904 24.9018 14.7904V14.4904ZM27.7328 12.8512C27.1449 13.5687 26.384 14.4904 24.9018 14.4904V14.7904C26.5373 14.7904 27.3787 13.7568 27.9649 13.0414L27.7328 12.8512ZM27.7337 12.8502L27.733 12.8511L27.9647 13.0416L27.9655 13.0407L27.7337 12.8502ZM29.2814 11.8208C28.9464 11.8208 28.6914 11.9101 28.4501 12.0912C28.2179 12.2655 28 12.5244 27.7335 12.8505L27.9657 13.0404C28.2375 12.7079 28.4325 12.4795 28.6302 12.3311C28.8188 12.1895 29.0105 12.1208 29.2814 12.1208V11.8208ZM30.8303 12.8545C30.5634 12.5265 30.3453 12.2666 30.113 12.0918C29.8715 11.9101 29.6164 11.8208 29.2814 11.8208V12.1208C29.5523 12.1208 29.7439 12.1895 29.9326 12.3315C30.1303 12.4803 30.3255 12.7096 30.5977 13.0439L30.8303 12.8545ZM30.8302 12.8544L30.8299 12.854L30.5981 13.0444L30.5985 13.0449L30.8302 12.8544ZM33.6655 14.4941C32.1792 14.4941 31.4175 13.5712 30.8304 12.8546L30.5983 13.0447C31.1839 13.7595 32.026 14.7941 33.6655 14.7941V14.4941ZM36.5017 12.8541C35.9138 13.5716 35.1522 14.4941 33.6655 14.4941V14.7941C35.3053 14.7941 36.1474 13.7598 36.7338 13.0443L36.5017 12.8541ZM38.0496 11.8245C37.7145 11.8245 37.4605 11.9139 37.2198 12.0951C36.9885 12.2692 36.7705 12.5281 36.502 12.8538L36.7335 13.0446C37.0079 12.7118 37.2028 12.4833 37.4002 12.3348C37.5882 12.1932 37.7787 12.1245 38.0496 12.1245V11.8245ZM38.638 11.577C38.4821 11.7346 38.2702 11.8236 38.0489 11.8245L38.0502 12.1245C38.3513 12.1233 38.6394 12.0022 38.8513 11.788L38.638 11.577ZM38.8801 10.9839C38.8811 11.2061 38.7939 11.4194 38.638 11.577L38.8513 11.788C39.0632 11.5738 39.1814 11.2841 39.1801 10.9827L38.8801 10.9839ZM38.6331 10.3929C38.7903 10.5492 38.8792 10.7618 38.8801 10.9839L39.1801 10.9827C39.1789 10.6812 39.0582 10.3926 38.8446 10.1802L38.6331 10.3929ZM38.0419 10.1504C38.2632 10.1494 38.4758 10.2367 38.6331 10.3929L38.8446 10.1802C38.6309 9.96779 38.3417 9.84911 38.0407 9.85038L38.0419 10.1504ZM35.2036 19.9745C35.7906 19.2572 36.5568 18.3345 38.0391 18.3345V18.0345C36.4038 18.0345 35.5573 19.0687 34.9715 19.7845L35.2036 19.9745ZM33.655 21.0079C33.9908 21.0079 34.2449 20.9173 34.4855 20.7352C34.7166 20.5602 34.9346 20.3004 35.2032 19.9749L34.9719 19.784C34.697 20.117 34.502 20.3464 34.3044 20.496C34.1162 20.6385 33.9258 20.7079 33.655 20.7079V21.0079ZM32.1068 19.9741C32.3737 20.302 32.5915 20.562 32.8235 20.7368C33.0646 20.9186 33.3196 21.0079 33.655 21.0079V20.7079C33.3837 20.7079 33.1923 20.6391 33.004 20.4972C32.8065 20.3484 32.6117 20.1192 32.3395 19.7848L32.1068 19.9741ZM32.1048 19.9717L32.1072 19.9746L32.3391 19.7843L32.3368 19.7814L32.1048 19.9717ZM29.2754 18.3345C30.7562 18.3345 31.517 19.2552 32.1048 19.9717L32.3368 19.7814C31.7507 19.067 30.9094 18.0345 29.2754 18.0345V18.3345ZM26.4444 19.9736C27.0323 19.2562 27.7932 18.3345 29.2754 18.3345V18.0345C27.64 18.0345 26.7986 19.0681 26.2124 19.7835L26.4444 19.9736ZM26.4437 19.9745L26.4444 19.9736L26.2124 19.7835L26.2116 19.7844L26.4437 19.9745ZM24.8958 21.0079C25.2312 21.0079 25.4863 20.9174 25.7275 20.7353C25.9595 20.5602 26.1774 20.3003 26.4438 19.9744L26.2115 19.7845C25.9396 20.1171 25.7446 20.3465 25.5467 20.4959C25.358 20.6384 25.1664 20.7079 24.8958 20.7079V21.0079ZM23.348 19.9745C23.6165 20.3022 23.8345 20.5621 24.0659 20.7368C24.3067 20.9185 24.5607 21.0079 24.8958 21.0079V20.7079C24.625 20.7079 24.4346 20.6392 24.2466 20.4973C24.0493 20.3484 23.8543 20.119 23.58 19.7844L23.348 19.9745ZM23.3465 19.9727L23.348 19.9746L23.58 19.7843L23.5784 19.7824L23.3465 19.9727ZM20.5163 18.3345C21.997 18.3345 22.7586 19.2561 23.3465 19.9727L23.5784 19.7825C22.9923 19.0679 22.1502 18.0345 20.5163 18.0345V18.3345ZM17.6845 19.9745C18.2726 19.257 19.0342 18.3345 20.5163 18.3345V18.0345C18.8809 18.0345 18.0388 19.0689 17.4525 19.7844L17.6845 19.9745ZM16.1367 21.0079C16.4721 21.0079 16.727 20.9174 16.9681 20.7353C17.1999 20.5602 17.4178 20.3003 17.6846 19.9745L17.4524 19.7844C17.1801 20.1171 16.9851 20.3465 16.7872 20.4959C16.5986 20.6384 16.4072 20.7079 16.1367 20.7079V21.0079ZM14.5936 19.974C14.8597 20.3017 15.0763 20.5618 15.3072 20.7366C15.5475 20.9185 15.8016 21.0079 16.1367 21.0079V20.7079C15.8658 20.7079 15.6755 20.6392 15.4883 20.4974C15.2918 20.3487 15.0981 20.1195 14.8266 19.7849L14.5936 19.974ZM14.5918 19.9717L14.5942 19.9746L14.8261 19.7843L14.8237 19.7814L14.5918 19.9717ZM11.7624 18.3345C13.2432 18.3345 14.004 19.2552 14.5918 19.9717L14.8237 19.7814C14.2376 19.067 13.3963 18.0345 11.7624 18.0345V18.3345ZM8.93136 19.9736C9.5193 19.2562 10.2802 18.3345 11.7624 18.3345V18.0345C10.1269 18.0345 9.28555 19.0681 8.69932 19.7835L8.93136 19.9736ZM8.93068 19.9745L8.9314 19.9736L8.69928 19.7835L8.69856 19.7844L8.93068 19.9745ZM7.38805 21.0079C7.7211 21.0079 7.97496 20.9172 8.21527 20.7352C8.44647 20.5601 8.6643 20.3003 8.93075 19.9744L8.69848 19.7845C8.42659 20.1171 8.23146 20.3466 8.03414 20.496C7.84591 20.6386 7.65565 20.7079 7.38805 20.7079V21.0079ZM5.83952 19.9746C6.10869 20.3026 6.32804 20.5623 6.56019 20.7369C6.80143 20.9184 7.05536 21.0079 7.38805 21.0079V20.7079C7.12007 20.7079 6.92951 20.6393 6.74053 20.4972C6.54245 20.3482 6.34584 20.1186 6.07142 19.7843L5.83952 19.9746ZM5.83923 19.9743L5.8396 19.9747L6.07134 19.7842L6.07097 19.7837L5.83923 19.9743ZM3.00847 18.3345C4.49021 18.3345 5.25182 19.2573 5.83907 19.9741L6.07113 19.7839C5.48566 19.0693 4.64352 18.0345 3.00847 18.0345V18.3345ZM2.67931 18.3911C2.78279 18.3506 2.8933 18.3314 3.00431 18.3345L3.01263 18.0346C2.86144 18.0304 2.71094 18.0566 2.57005 18.1117L2.67931 18.3911ZM2.40181 18.5701C2.48147 18.4924 2.57583 18.4316 2.67931 18.3911L2.57005 18.1117C2.42916 18.1668 2.30074 18.2496 2.19237 18.3553L2.40181 18.5701ZM2.21555 18.8434C2.25881 18.7407 2.32215 18.6478 2.40181 18.5701L2.19237 18.3553C2.084 18.461 1.99788 18.5873 1.93909 18.7269L2.21555 18.8434ZM2.15 19.1678C2.15 19.0564 2.17229 18.946 2.21555 18.8434L1.93909 18.7269C1.88029 18.8664 1.85 19.0164 1.85 19.1678H2.15ZM2.21555 19.4923C2.17229 19.3896 2.15 19.2793 2.15 19.1678H1.85C1.85 19.3193 1.88029 19.4692 1.93909 19.6088L2.21555 19.4923ZM2.40181 19.7656C2.32215 19.6879 2.25881 19.595 2.21555 19.4923L1.93909 19.6088C1.99788 19.7484 2.084 19.8747 2.19237 19.9804L2.40181 19.7656ZM2.67931 19.9446C2.57583 19.9041 2.48147 19.8432 2.40181 19.7656L2.19237 19.9804C2.30074 20.086 2.42916 20.1689 2.57005 20.224L2.67931 19.9446ZM3.00431 20.0012C2.8933 20.0043 2.78279 19.985 2.67931 19.9446L2.57005 20.224C2.71094 20.2791 2.86144 20.3053 3.01263 20.3011L3.00431 20.0012ZM4.55604 21.0304C4.28748 20.7046 4.06916 20.4458 3.83763 20.2716C3.59682 20.0905 3.34286 20.0012 3.00847 20.0012V20.3012C3.2785 20.3012 3.46903 20.3698 3.65732 20.5114C3.85488 20.66 4.05027 20.8885 4.32455 21.2212L4.55604 21.0304ZM4.55865 21.0336L4.55628 21.0307L4.32432 21.2209L4.32669 21.2238L4.55865 21.0336ZM7.38805 22.6707C5.90725 22.6707 5.14643 21.7501 4.55864 21.0336L4.3267 21.2238C4.91277 21.9383 5.7541 22.9707 7.38805 22.9707V22.6707ZM10.219 21.0316C9.63111 21.7491 8.87025 22.6707 7.38805 22.6707V22.9707C9.0235 22.9707 9.86486 21.9372 10.4511 21.2218L10.219 21.0316ZM10.2198 21.0307L10.219 21.0316L10.4511 21.2218L10.4518 21.2209L10.2198 21.0307ZM11.7624 20.0012C11.4297 20.0012 11.1759 20.0906 10.9355 20.2717C10.7041 20.4459 10.4862 20.7048 10.2197 21.0309L10.4519 21.2208C10.7237 20.8883 10.9188 20.6598 11.1159 20.5114C11.304 20.3697 11.4944 20.3012 11.7624 20.3012V20.0012ZM13.3051 21.031C13.0389 20.7048 12.821 20.4459 12.5895 20.2717C12.3489 20.0906 12.095 20.0012 11.7624 20.0012V20.3012C12.0304 20.3012 12.2209 20.3697 12.4091 20.5114C12.6063 20.6598 12.8014 20.8883 13.0727 21.2207L13.3051 21.031ZM13.3053 21.0311L13.3049 21.0307L13.073 21.221L13.0733 21.2214L13.3053 21.0311ZM16.1367 22.6707C14.6542 22.6707 13.8926 21.748 13.3053 21.0312L13.0733 21.2213C13.6588 21.936 14.5009 22.9707 16.1367 22.9707V22.6707ZM18.9676 21.0308C18.3804 21.7483 17.6195 22.6707 16.1367 22.6707V22.9707C17.7728 22.9707 18.6142 21.9363 19.1998 21.2208L18.9676 21.0308ZM20.5163 20.0012C20.1809 20.0012 19.9259 20.0904 19.6846 20.2716C19.4524 20.4458 19.2345 20.7048 18.9676 21.0308L19.1997 21.2208C19.472 20.8883 19.667 20.6599 19.8647 20.5115C20.0532 20.3699 20.2449 20.3012 20.5163 20.3012V20.0012ZM22.0638 21.0304C21.7954 20.7047 21.5776 20.4458 21.3463 20.2717C21.1057 20.0905 20.8517 20.0012 20.5163 20.0012V20.3012C20.7875 20.3012 20.978 20.3699 21.1659 20.5114C21.3632 20.6599 21.5579 20.8883 21.8323 21.2212L22.0638 21.0304ZM22.0664 21.0336L22.0641 21.0307L21.8321 21.2209L21.8345 21.2238L22.0664 21.0336ZM24.8958 22.6707C23.415 22.6707 22.6542 21.7501 22.0664 21.0336L21.8345 21.2238C22.4206 21.9383 23.2619 22.9707 24.8958 22.9707V22.6707ZM27.7268 21.0316C27.1389 21.7491 26.378 22.6707 24.8958 22.6707V22.9707C26.5313 22.9707 27.3726 21.9372 27.9589 21.2218L27.7268 21.0316ZM27.7275 21.0307L27.7268 21.0316L27.9589 21.2218L27.9596 21.2209L27.7275 21.0307ZM29.2754 20.0012C28.9404 20.0012 28.6854 20.0904 28.4441 20.2716C28.2119 20.4459 27.994 20.7048 27.7274 21.0309L27.9597 21.2208C28.2315 20.8883 28.4265 20.6599 28.6242 20.5115C28.8128 20.3699 29.0045 20.3012 29.2754 20.3012V20.0012ZM30.824 21.0308C30.5571 20.7047 30.339 20.4458 30.1068 20.2715C29.8654 20.0904 29.6104 20.0012 29.2754 20.0012V20.3012C29.5463 20.3012 29.738 20.3699 29.9267 20.5115C30.1245 20.6599 30.3197 20.8883 30.5919 21.2208L30.824 21.0308ZM30.8242 21.031L30.8238 21.0305L30.5921 21.2211L30.5925 21.2216L30.8242 21.031ZM33.6595 22.6707C32.1732 22.6707 31.4115 21.7479 30.8244 21.0312L30.5923 21.2213C31.1779 21.9361 32.02 22.9707 33.6595 22.9707V22.6707ZM36.4957 21.0307C35.9078 21.7482 35.1461 22.6707 33.6595 22.6707V22.9707C35.2993 22.9707 36.1414 21.9365 36.7278 21.2209L36.4957 21.0307ZM38.0436 20.0012C37.7086 20.0012 37.4535 20.0904 37.2122 20.2716C36.9801 20.4459 36.7622 20.7048 36.4956 21.0309L36.7279 21.2208C36.9996 20.8883 37.1947 20.6599 37.3924 20.5115C37.5809 20.3699 37.7726 20.3012 38.0436 20.3012V20.0012ZM38.3722 19.9438C38.2688 19.9845 38.1584 20.004 38.0474 20.0012L38.0398 20.3011C38.191 20.3049 38.3414 20.2783 38.4821 20.2229L38.3722 19.9438ZM38.6493 19.7641C38.5698 19.842 38.4756 19.9031 38.3722 19.9438L38.4821 20.2229C38.6229 20.1675 38.7511 20.0844 38.8592 19.9784L38.6493 19.7641ZM38.8349 19.4905C38.7919 19.5932 38.7287 19.6863 38.6493 19.7641L38.8592 19.9784C38.9673 19.8725 39.0531 19.746 39.1116 19.6063L38.8349 19.4905ZM38.8997 19.1659C38.8999 19.2773 38.8779 19.3877 38.8349 19.4905L39.1116 19.6063C39.1701 19.4666 39.2 19.3166 39.1997 19.1652L38.8997 19.1659ZM38.8334 18.8415C38.8769 18.9441 38.8994 19.0544 38.8997 19.1659L39.1997 19.1652C39.1993 19.0137 39.1687 18.8639 39.1096 18.7244L38.8334 18.8415ZM38.6465 18.5687C38.7264 18.6462 38.7899 18.739 38.8334 18.8416L39.1096 18.7244C39.0505 18.585 38.9641 18.4589 38.8555 18.3535L38.6465 18.5687ZM38.3687 18.3904C38.4722 18.4306 38.5667 18.4912 38.6465 18.5687L38.8555 18.3535C38.7469 18.2481 38.6183 18.1655 38.4773 18.1107L38.3687 18.3904ZM38.0435 18.3345C38.1545 18.3311 38.2651 18.3501 38.3687 18.3904L38.4773 18.1107C38.3363 18.056 38.1857 18.0301 38.0346 18.0346L38.0435 18.3345ZM38.0391 26.2141C36.4038 26.2141 35.5573 27.2483 34.9715 27.9641L35.2036 28.1541C35.7906 27.4368 36.5568 26.5141 38.0391 26.5141V26.2141ZM37.8891 26.3626V26.3641H38.1891V26.3626H37.8891ZM38.4773 26.2888C38.3363 26.2341 38.1857 26.2082 38.0346 26.2127L38.0435 26.5126C38.1545 26.5092 38.2651 26.5282 38.3687 26.5685L38.4773 26.2888ZM38.8555 26.5316C38.7469 26.4262 38.6183 26.3436 38.4773 26.2888L38.3687 26.5685C38.4722 26.6087 38.5667 26.6693 38.6465 26.7468L38.8555 26.5316ZM39.1096 26.9025C39.0505 26.7631 38.9641 26.637 38.8555 26.5316L38.6465 26.7468C38.7264 26.8243 38.7899 26.9171 38.8334 27.0197L39.1096 26.9025ZM39.1997 27.3433C39.1993 27.1918 39.1687 27.042 39.1096 26.9025L38.8334 27.0197C38.8769 27.1222 38.8994 27.2325 38.8997 27.344L39.1997 27.3433ZM39.1116 27.7844C39.1701 27.6447 39.2 27.4947 39.1997 27.3433L38.8997 27.344C38.8999 27.4554 38.8779 27.5658 38.8349 27.6686L39.1116 27.7844ZM38.8592 28.1565C38.9673 28.0506 39.0531 27.9241 39.1116 27.7844L38.8349 27.6686C38.7919 27.7713 38.7287 27.8644 38.6493 27.9422L38.8592 28.1565ZM38.4821 28.401C38.6229 28.3456 38.7511 28.2625 38.8592 28.1565L38.6493 27.9422C38.5698 28.0201 38.4756 28.0812 38.3722 28.1219L38.4821 28.401ZM38.0398 28.4792C38.191 28.483 38.3414 28.4564 38.4821 28.401L38.3722 28.1219C38.2688 28.1626 38.1584 28.1821 38.0474 28.1793L38.0398 28.4792ZM36.7275 29.3993C37.0018 29.0665 37.1968 28.838 37.3942 28.6895C37.5822 28.548 37.7727 28.4793 38.0436 28.4793V28.1793C37.7085 28.1793 37.4545 28.2686 37.2138 28.4498C36.9824 28.6239 36.7645 28.8828 36.496 29.2085L36.7275 29.3993ZM33.6595 31.1488C35.2993 31.1488 36.1414 30.1146 36.7278 29.399L36.4957 29.2088C35.9078 29.9263 35.1461 30.8489 33.6595 30.8489V31.1488ZM30.5919 29.3989C31.1776 30.1146 32.0197 31.1488 33.6595 31.1488V30.8489C32.1728 30.8489 31.4112 29.9263 30.8241 29.2089L30.5919 29.3989ZM29.2754 28.4793C29.5463 28.4793 29.738 28.548 29.9267 28.6896C30.1245 28.838 30.3197 29.0664 30.5919 29.3989L30.824 29.2089C30.5571 28.8828 30.339 28.6239 30.1068 28.4497C29.8654 28.2685 29.6104 28.1793 29.2754 28.1793V28.4793ZM27.9597 29.3989C28.2315 29.0664 28.4265 28.838 28.6242 28.6896C28.8128 28.548 29.0045 28.4793 29.2754 28.4793V28.1793C28.9404 28.1793 28.6854 28.2685 28.4441 28.4497C28.2119 28.624 27.994 28.8829 27.7274 29.209L27.9597 29.3989ZM27.9589 29.3999L27.9596 29.399L27.7275 29.2089L27.7268 29.2097L27.9589 29.3999ZM24.8958 31.1488C26.5313 31.1488 27.3726 30.1153 27.9589 29.3999L27.7268 29.2097C27.1389 29.9272 26.378 30.8489 24.8958 30.8489V31.1488ZM21.8355 29.3986C22.4183 30.1144 23.2596 31.1488 24.8958 31.1488V30.8489C23.4131 30.8489 22.6521 29.9264 22.0682 29.2092L21.8355 29.3986ZM20.52 28.4793C20.7913 28.4793 20.9817 28.548 21.1696 28.6895C21.3669 28.838 21.5617 29.0664 21.8361 29.3993L22.0676 29.2085C21.7991 28.8828 21.5813 28.6239 21.3501 28.4498C21.1094 28.2686 20.8554 28.1793 20.52 28.1793V28.4793ZM19.2035 29.3989C19.4757 29.0664 19.6707 28.838 19.8684 28.6896C20.057 28.548 20.2487 28.4793 20.52 28.4793V28.1793C20.1847 28.1793 19.9296 28.2685 19.6883 28.4497C19.4562 28.6239 19.2382 28.8829 18.9714 29.2089L19.2035 29.3989ZM19.1997 29.4035L19.2035 29.3989L18.9714 29.2089L18.9676 29.2135L19.1997 29.4035ZM16.1404 31.1488C17.7769 31.1488 18.6144 30.1187 19.1997 29.4035L18.9676 29.2135C18.3808 29.9305 17.6237 30.8489 16.1404 30.8489V31.1488ZM13.073 29.4018C13.6606 30.1171 14.5027 31.1488 16.1404 31.1488V30.8489C14.6556 30.8489 13.894 29.9286 13.3048 29.2114L13.073 29.4018ZM13.0708 29.3991L13.0729 29.4018L13.3048 29.2114L13.3026 29.2087L13.0708 29.3991ZM11.7601 28.4793C12.0281 28.4793 12.2187 28.5478 12.4068 28.6895C12.604 28.8379 12.7991 29.0664 13.0705 29.3988L13.3029 29.2091C13.0366 28.8829 12.8188 28.624 12.5873 28.4498C12.3467 28.2687 12.0927 28.1793 11.7601 28.1793V28.4793ZM10.4497 29.3989C10.7214 29.0664 10.9165 28.8379 11.1137 28.6895C11.3018 28.5478 11.4921 28.4793 11.7601 28.4793V28.1793C11.4275 28.1793 11.1737 28.2687 10.9332 28.4498C10.7018 28.624 10.484 28.8829 10.2174 29.209L10.4497 29.3989ZM10.4487 29.4L10.4494 29.3991L10.2176 29.2087L10.2169 29.2096L10.4487 29.4ZM7.38579 31.1488C9.02125 31.1488 9.86261 30.1153 10.4488 29.3999L10.2168 29.2097C9.62886 29.9272 8.868 30.8489 7.38579 30.8489V31.1488ZM4.33157 29.4094C4.918 30.1226 5.7562 31.1488 7.38579 31.1488V30.8489C5.90906 30.8489 5.15132 29.934 4.5633 29.2188L4.33157 29.4094ZM4.32443 29.4007L4.33157 29.4094L4.5633 29.2188L4.55617 29.2102L4.32443 29.4007ZM3.00847 28.4808C3.2785 28.4808 3.46903 28.5494 3.65732 28.691C3.85488 28.8396 4.05027 29.0681 4.32455 29.4008L4.55604 29.21C4.28748 28.8842 4.06916 28.6254 3.83763 28.4513C3.59682 28.2702 3.34286 28.1808 3.00847 28.1808V28.4808ZM2.57005 28.4036C2.71094 28.4587 2.86144 28.4849 3.01263 28.4807L3.00431 28.1808C2.8933 28.1839 2.78279 28.1646 2.67931 28.1242L2.57005 28.4036ZM2.19237 28.16C2.30074 28.2656 2.42916 28.3485 2.57005 28.4036L2.67931 28.1242C2.57583 28.0837 2.48147 28.0229 2.40181 27.9452L2.19237 28.16ZM1.93909 27.7884C1.99788 27.928 2.084 28.0543 2.19237 28.16L2.40181 27.9452C2.32215 27.8675 2.25881 27.7746 2.21555 27.6719L1.93909 27.7884ZM1.85 27.3474C1.85 27.4989 1.88029 27.6488 1.93909 27.7884L2.21555 27.6719C2.17229 27.5693 2.15 27.4589 2.15 27.3474H1.85ZM1.93909 26.9065C1.88029 27.046 1.85 27.196 1.85 27.3474H2.15C2.15 27.236 2.17229 27.1256 2.21555 27.023L1.93909 26.9065ZM2.19237 26.5349C2.084 26.6406 1.99788 26.7669 1.93909 26.9065L2.21555 27.023C2.25881 26.9203 2.32215 26.8274 2.40181 26.7497L2.19237 26.5349ZM2.57005 26.2913C2.42916 26.3464 2.30074 26.4293 2.19237 26.5349L2.40181 26.7497C2.48147 26.672 2.57583 26.6112 2.67931 26.5707L2.57005 26.2913ZM3.01263 26.2142C2.86144 26.21 2.71094 26.2362 2.57005 26.2913L2.67931 26.5707C2.78279 26.5302 2.8933 26.511 3.00431 26.5141L3.01263 26.2142ZM6.07113 27.9636C5.48565 27.2489 4.64352 26.2141 3.00847 26.2141V26.5141C4.49021 26.5141 5.25182 27.4369 5.83907 28.1537L6.07113 27.9636ZM6.07125 27.9637L6.07088 27.9632L5.83932 28.154L5.83969 28.1544L6.07125 27.9637ZM7.38805 28.883C7.11997 28.883 6.92932 28.8145 6.7403 28.6729C6.54219 28.5245 6.3456 28.2961 6.07115 27.9636L5.83979 28.1545C6.10893 28.4806 6.3283 28.7391 6.56042 28.913C6.80162 29.0937 7.05546 29.183 7.38805 29.183V28.883ZM8.69848 27.9641C8.42674 28.2966 8.23165 28.5248 8.03454 28.6731C7.8465 28.8145 7.65614 28.883 7.38805 28.883V29.183C7.72061 29.183 7.97437 29.0937 8.21487 28.9128C8.44629 28.7388 8.66416 28.4801 8.93075 28.154L8.69848 27.9641ZM8.69935 27.9631L8.69862 27.964L8.93061 28.1542L8.93134 28.1533L8.69935 27.9631ZM11.7624 26.2141C10.1269 26.2141 9.28555 27.2477 8.69932 27.9631L8.93137 28.1532C9.5193 27.4358 10.2802 26.5141 11.7624 26.5141V26.2141ZM14.8237 27.961C14.2376 27.2466 13.3963 26.2141 11.7624 26.2141V26.5141C13.2432 26.5141 14.004 27.4348 14.5918 28.1513L14.8237 27.961ZM14.8261 27.9639L14.8237 27.961L14.5918 28.1513L14.5941 28.1542L14.8261 27.9639ZM16.1367 28.883C15.8657 28.883 15.6753 28.8144 15.4881 28.6732C15.2916 28.525 15.0979 28.2969 14.8263 27.9642L14.5939 28.1539C14.8599 28.4798 15.0766 28.7386 15.3075 28.9127C15.5476 29.0939 15.8017 29.183 16.1367 29.183V28.883ZM17.4524 27.964C17.1803 28.2966 16.9852 28.5248 16.7876 28.673C16.5992 28.8144 16.4077 28.883 16.1367 28.883V29.183C16.4716 29.183 16.7265 29.0939 16.9677 28.913C17.1997 28.7389 17.4177 28.4801 17.6846 28.1541L17.4524 27.964ZM20.5163 26.2141C18.8809 26.2141 18.0388 27.2485 17.4525 27.964L17.6845 28.1541C18.2726 27.4366 19.0342 26.5141 20.5163 26.5141V26.2141ZM23.5784 27.9621C22.9923 27.2476 22.1502 26.2141 20.5163 26.2141V26.5141C21.997 26.5141 22.7586 27.4357 23.3465 28.1523L23.5784 27.9621ZM23.5799 27.9638L23.5784 27.962L23.3466 28.1524L23.3481 28.1543L23.5799 27.9638ZM24.8958 28.883C24.6249 28.883 24.4344 28.8144 24.2464 28.6731C24.0491 28.5247 23.8541 28.2965 23.5797 27.9636L23.3483 28.1545C23.6168 28.4802 23.8347 28.7389 24.0661 28.9129C24.3069 29.0938 24.5608 29.183 24.8958 29.183V28.883ZM26.2115 27.9641C25.9398 28.2966 25.7447 28.5248 25.5471 28.673C25.3585 28.8143 25.1669 28.883 24.8958 28.883V29.183C25.2307 29.183 25.4858 29.0939 25.7271 28.913C25.9593 28.7389 26.1772 28.4801 26.4438 28.154L26.2115 27.9641ZM26.2123 27.9632L26.2115 27.9641L26.4438 28.154L26.4445 28.1531L26.2123 27.9632ZM29.2754 26.2141C27.64 26.2141 26.7986 27.2477 26.2124 27.9631L26.4444 28.1532C27.0323 27.4358 27.7932 26.5141 29.2754 26.5141V26.2141ZM32.3368 27.961C31.7507 27.2466 30.9094 26.2141 29.2754 26.2141V26.5141C30.7562 26.5141 31.517 27.4348 32.1048 28.1513L32.3368 27.961ZM32.3392 27.964L32.3368 27.9611L32.1048 28.1513L32.1071 28.1542L32.3392 27.964ZM33.655 28.883C33.3836 28.883 33.1921 28.8143 33.0038 28.673C32.8063 28.5248 32.6114 28.2966 32.3392 27.964L32.1071 28.1541C32.3739 28.4801 32.5917 28.7389 32.8237 28.9129C33.0648 29.0939 33.3197 29.183 33.655 29.183V28.883ZM34.9719 27.9636C34.6971 28.2964 34.5021 28.5247 34.3048 28.6731C34.1168 28.8144 33.9263 28.883 33.655 28.883V29.183C33.9903 29.183 34.2443 29.0939 34.4851 28.9129C34.7164 28.7389 34.9344 28.4802 35.2032 28.1545L34.9719 27.9636Z" fill="currentColor" mask="url(#path-1-inside-1_916_80569)"/>
</svg>
