<svg width="35" height="35" viewBox="0 0 35 35" fill="none" xmlns="http://www.w3.org/2000/svg">
<g clip-path="url(#clip0_851_65699)">
<path d="M15.3409 35.0042C15.3432 33.9926 15.1307 32.9906 14.7158 32.0555C14.3008 31.1205 13.6915 30.271 12.9229 29.5557C12.1543 28.8404 11.2414 28.2734 10.2367 27.8872C9.23197 27.501 8.1552 27.3033 7.06818 27.3054C8.1552 27.3075 9.23197 27.1098 10.2367 26.7236C11.2414 26.3375 12.1543 25.7705 12.9229 25.0551C13.6915 24.3398 14.3008 23.4903 14.7158 22.5553C15.1307 21.6203 15.3432 20.6182 15.3409 19.6066C15.3387 20.6182 15.5511 21.6203 15.9661 22.5553C16.381 23.4903 16.9903 24.3398 17.7589 25.0551C18.5276 25.7705 19.4404 26.3375 20.4451 26.7236C21.4499 27.1098 22.5266 27.3075 23.6136 27.3054C22.5266 27.3033 21.4499 27.501 20.4451 27.8872C19.4404 28.2734 18.5276 28.8404 17.7589 29.5557C16.9903 30.271 16.381 31.1205 15.9661 32.0555C15.5511 32.9906 15.3387 33.9926 15.3409 35.0042ZM16.5455 7.69882C15.4584 7.70091 14.3817 7.5032 13.377 7.11704C12.3723 6.73088 11.4594 6.16386 10.6907 5.44855C9.9221 4.73323 9.31282 3.88369 8.89787 2.94868C8.48293 2.01367 8.27048 1.01161 8.27273 0C8.27497 1.01161 8.06253 2.01367 7.64758 2.94868C7.23263 3.88369 6.62335 4.73323 5.85471 5.44855C5.08607 6.16386 4.1732 6.73088 3.16849 7.11704C2.16378 7.5032 1.08702 7.70091 0 7.69882C1.08702 7.69672 2.16378 7.89443 3.16849 8.28059C4.1732 8.66676 5.08607 9.23377 5.85471 9.94908C6.62335 10.6644 7.23263 11.5139 7.64758 12.4489C8.06253 13.384 8.27497 14.386 8.27273 15.3976C8.27048 14.386 8.48293 13.384 8.89787 12.4489C9.31282 11.5139 9.9221 10.6644 10.6907 9.94908C11.4594 9.23377 12.3723 8.66676 13.377 8.28059C14.3817 7.89443 15.4584 7.69672 16.5455 7.69882ZM35 13.0922C33.913 13.0943 32.8362 12.8966 31.8315 12.5104C30.8268 12.1243 29.9139 11.5573 29.1453 10.8419C28.3766 10.1266 27.7674 9.27709 27.3524 8.34208C26.9375 7.40707 26.725 6.40501 26.7273 5.3934C26.7295 6.40501 26.5171 7.40707 26.1021 8.34208C25.6872 9.27709 25.0779 10.1266 24.3093 10.8419C23.5406 11.5573 22.6277 12.1243 21.623 12.5104C20.6183 12.8966 19.5416 13.0943 18.4545 13.0922C19.5416 13.0901 20.6183 13.2878 21.623 13.674C22.6277 14.0602 23.5406 14.6272 24.3093 15.3425C25.0779 16.0578 25.6872 16.9073 26.1021 17.8424C26.5171 18.7774 26.7295 19.7794 26.7273 20.791C26.7909 16.5228 30.4818 13.088 35 13.088V13.0922Z" fill="currentColor"/>
</g>
<defs>
<clipPath id="clip0_851_65699">
<rect width="35" height="35" fill="currentColor"/>
</clipPath>
</defs>
</svg>
