<svg width="38" height="38" viewBox="0 0 38 38" fill="none" xmlns="http://www.w3.org/2000/svg">
<path d="M19 38C8.52688 38 0 29.4731 0 19C0 8.52688 8.52688 0 19 0C29.4731 0 38 8.52688 38 19C38 29.4731 29.4731 38 19 38ZM19 1.42945C9.31036 1.42945 1.42945 9.31036 1.42945 19C1.42945 28.6896 9.31036 36.5705 19 36.5705C28.6896 36.5705 36.5705 28.6896 36.5705 19C36.5705 9.31036 28.6896 1.42945 19 1.42945Z" fill="currentColor"/>
<path d="M18.9999 38.0001C11.6358 38.0001 5.64943 32.0137 5.64943 24.6496C5.64669 22.6872 6.07767 20.7485 6.91155 18.9721C7.74543 17.1957 8.96158 15.6256 10.473 14.374C10.5457 14.314 10.6295 14.269 10.7196 14.2415C10.8098 14.2139 10.9044 14.2044 10.9982 14.2135C11.092 14.2225 11.1831 14.2499 11.2663 14.2942C11.3495 14.3384 11.4231 14.3986 11.4831 14.4713C11.543 14.544 11.588 14.6278 11.6155 14.718C11.6431 14.8081 11.6526 14.9027 11.6436 14.9965C11.6345 15.0903 11.6071 15.1814 11.5628 15.2646C11.5186 15.3478 11.4584 15.4214 11.3857 15.4814C10.036 16.5983 8.95005 17.9999 8.20549 19.5857C7.46092 21.1715 7.07621 22.9023 7.07888 24.6542C7.07888 31.2256 12.4313 36.5743 18.999 36.5743C25.5667 36.5743 30.9191 31.2219 30.9191 24.6542C30.9191 18.0865 25.5713 12.7295 18.999 12.7295C18.8139 12.7228 18.6386 12.6446 18.51 12.5113C18.3813 12.378 18.3095 12.2 18.3095 12.0148C18.3095 11.8295 18.3813 11.6515 18.51 11.5182C18.6386 11.3849 18.8139 11.3067 18.999 11.3C26.3631 11.3 32.3495 17.2855 32.3495 24.6505C32.3495 32.0156 26.364 38.0001 18.999 38.0001H18.9999Z" fill="currentColor"/>
<path d="M15.3138 12.9453C15.3139 13.1107 15.265 13.2725 15.1732 13.4101C15.0814 13.5478 14.9509 13.6551 14.7981 13.7185C14.6452 13.7819 14.4771 13.7985 14.3148 13.7663C14.1525 13.734 14.0035 13.6544 13.8865 13.5374C13.7695 13.4204 13.6899 13.2714 13.6576 13.1091C13.6254 12.9468 13.642 12.7786 13.7054 12.6258C13.7688 12.473 13.8761 12.3424 14.0138 12.2506C14.1514 12.1588 14.3132 12.1099 14.4786 12.1101C14.5884 12.1095 14.6973 12.1307 14.7989 12.1724C14.9005 12.2142 14.9928 12.2757 15.0705 12.3534C15.1482 12.431 15.2097 12.5234 15.2514 12.625C15.2932 12.7266 15.3144 12.8354 15.3138 12.9453Z" fill="currentColor"/>
</svg>
