<svg width="40" height="40" viewBox="0 0 40 40" fill="none" xmlns="http://www.w3.org/2000/svg">
<path fill-rule="evenodd" clip-rule="evenodd" d="M15.7784 8.77439C15.7784 8.34663 16.1342 8 16.5732 8C16.789 8 16.9952 8.08481 17.1447 8.236C17.2952 8.38719 17.3756 8.59001 17.368 8.8002V31.5415C17.368 31.9692 17.0123 32.3158 16.5732 32.3158C16.1342 32.3158 15.7784 31.9692 15.7784 31.5415V8.77439ZM12.6475 12.4555C12.2085 12.4555 11.8527 12.8022 11.8527 13.2299V27.086C11.8527 27.5137 12.2085 27.8604 12.6475 27.8604C13.0866 27.8604 13.4423 27.5137 13.4423 27.086V13.2299C13.4423 12.8022 13.0866 12.4555 12.6475 12.4555ZM4.79482 15.1448C4.35578 15.1448 4 15.4914 4 15.9192V24.396C4 24.8237 4.35578 25.1704 4.79482 25.1704C5.23386 25.1704 5.58964 24.8237 5.58964 24.396V15.9192C5.58964 15.4914 5.23386 15.1448 4.79482 15.1448ZM36.2052 17.8404C35.7661 17.8404 35.4104 18.187 35.4104 18.6147V21.7123C35.4104 22.1401 35.7661 22.4867 36.2052 22.4867C36.6442 22.4867 37 22.1401 37 21.7123V18.6092C36.9972 18.1833 36.6423 17.8404 36.2052 17.8404ZM7.92592 17.726C7.92592 17.2982 8.2817 16.9516 8.72074 16.9516C9.15978 16.9516 9.51556 17.2982 9.51556 17.726V22.589C9.51556 23.0167 9.15978 23.3633 8.72074 23.3633C8.2817 23.3633 7.92592 23.0167 7.92592 22.589V17.726ZM20.5 12.4555C20.061 12.4555 19.7052 12.8022 19.7052 13.2299V27.086C19.7052 27.5137 20.061 27.8604 20.5 27.8604C20.939 27.8604 21.2948 27.5137 21.2948 27.086V13.2299C21.2948 12.8022 20.939 12.4555 20.5 12.4555ZM23.632 10.7205C23.632 10.2927 23.9877 9.94611 24.4268 9.94611C24.8658 9.94611 25.2216 10.2927 25.2216 10.7205V29.5944C25.2216 30.0222 24.8658 30.3688 24.4268 30.3688C23.9877 30.3688 23.632 30.0222 23.632 29.5944V10.7205ZM28.3527 15.1448C27.9137 15.1448 27.5579 15.4914 27.5579 15.9192V24.396C27.5579 24.8237 27.9137 25.1704 28.3527 25.1704C28.7917 25.1704 29.1475 24.8237 29.1475 24.396V15.9192C29.1475 15.4914 28.7917 15.1448 28.3527 15.1448ZM31.4847 14.0458C31.4847 13.618 31.8404 13.2714 32.2795 13.2714C32.7185 13.2714 33.0743 13.618 33.0743 14.0458V26.271C33.0743 26.6988 32.7185 27.0454 32.2795 27.0454C31.8404 27.0454 31.4847 26.6988 31.4847 26.271V14.0458Z" fill="currentColor"/>
</svg>
