<svg width="207" height="207" viewBox="0 0 207 207" fill="none" xmlns="http://www.w3.org/2000/svg">
<circle cx="103.5" cy="103.5" r="100.5" stroke="url(#paint0_linear_611_33367)" stroke-width="6"/>
<circle cx="104" cy="104" r="85" stroke="#B9B9BA" stroke-width="2"/>
<path fill-rule="evenodd" clip-rule="evenodd" d="M101.958 108.936C101.958 109.788 102.648 110.478 103.5 110.478C104.351 110.478 105.042 109.788 105.042 108.936L105.042 93.9372L107.766 96.9222L107.842 96.9999C108.459 97.5869 109.435 97.5628 110.022 96.946L110.212 96.7463C110.772 96.1575 110.779 95.2347 110.228 94.6375L104.632 88.5791L104.546 88.4925C103.92 87.9148 102.945 87.9536 102.367 88.5791L96.7718 94.6379C96.2204 95.2349 96.2272 96.1574 96.7873 96.7463L96.9764 96.9451L97.0546 97.0216C97.6836 97.5954 98.6587 97.5506 99.2325 96.9215L101.959 93.9326L101.958 108.936ZM116.523 110.118C116.787 109.829 117.143 109.667 117.515 109.667C117.887 109.667 118.244 109.828 118.506 110.118C118.769 110.408 118.916 110.8 118.916 111.209V117.375C118.916 117.785 118.77 118.177 118.506 118.466C118.243 118.755 117.886 118.917 117.515 118.917H89.4845C89.1121 118.917 88.7557 118.755 88.4931 118.466C88.2304 118.176 88.083 117.784 88.083 117.375V111.209C88.083 110.657 88.3505 110.148 88.7838 109.873C89.217 109.598 89.752 109.597 90.1853 109.873C90.6185 110.149 90.886 110.658 90.886 111.209V115.833H116.113V111.209C116.113 110.799 116.26 110.407 116.523 110.118Z" fill="#2C2C31"/>
<defs>
<linearGradient id="paint0_linear_611_33367" x1="-0.000546502" y1="5.0479e-06" x2="154.133" y2="240.834" gradientUnits="userSpaceOnUse">
<stop stop-color="#FFABCB"/>
<stop offset="1" stop-color="#7D33FF"/>
</linearGradient>
</defs>
</svg>
