<svg viewBox="0 0 184 38" version="1.1"><title>logo</title><desc>Created with Sketch.</desc><g id="DolbyIO-Sign-Up-Desktop" stroke="none" stroke-width="1" fill="none" fill-rule="evenodd"><g id="DolbyIO-Signup-About-You-V2" transform="translate(-64.000000, -64.000000)" fill="#FFFFFE"><g id="logo" transform="translate(64.000000, 64.000000)"><g id="Brand/IO/io-logo-white"><g id="2020_DolbyIO_Horiz_White"><path d="M151.978731,26.9787859 C151.978731,27.4958899 151.808491,27.937906 151.464971,28.305138 C151.121451,28.67237 150.677611,28.855986 150.128891,28.855986 C149.580171,28.855986 149.134811,28.67237 148.792811,28.305138 C148.449291,27.937906 148.27905,27.4958899 148.27905,26.9787859 C148.27905,26.5165539 148.449291,26.0952098 148.792811,25.7139938 C149.134811,25.3333858 149.580171,25.1426258 150.128891,25.1426258 C150.677611,25.1426258 151.121451,25.3333858 151.464971,25.7139938 C151.808491,26.0952098 151.978731,26.5165539 151.978731,26.9787859" id="Fill-1"></path><polygon id="Fill-2" points="157.283531 28.912986 159.545291 28.912986 159.545291 8.96511263 157.283531 8.96511263"></polygon><path d="M181.028973,18.9247613 C181.028973,17.7870413 180.851133,16.7306412 180.496973,15.7554091 C180.141293,14.780329 179.622973,13.933841 178.940493,13.2159449 C178.258013,12.4983529 177.440253,11.9297208 176.484172,11.5092888 C175.529612,11.0896168 174.451932,10.8795528 173.249612,10.8795528 C172.048812,10.8795528 170.978732,11.0896168 170.036332,11.5092888 C169.095452,11.9297208 168.282252,12.4983529 167.601292,13.2159449 C166.918812,13.933841 166.400492,14.780329 166.044812,15.7554091 C165.690652,16.7306412 165.512812,17.7870413 165.512812,18.9247613 C165.512812,20.0624814 165.690652,21.1188815 166.044812,22.0939616 C166.400492,23.0691936 166.918812,23.9162897 167.601292,24.6335777 C168.282252,25.3516258 169.095452,25.9134178 170.036332,26.3198659 C170.978732,26.7261619 172.048812,26.9293859 173.249612,26.9293859 C174.451932,26.9293859 175.529612,26.7261619 176.484172,26.3198659 C177.440253,25.9134178 178.258013,25.3516258 178.940493,24.6335777 C179.622973,23.9162897 180.141293,23.0691936 180.496973,22.0939616 C180.851133,21.1188815 181.028973,20.0624814 181.028973,18.9247613 Z M183.321133,18.9247613 C183.321133,20.3608574 183.074893,21.6878175 182.583933,22.9067056 C182.092973,24.1257457 181.404413,25.1822978 180.516733,26.0762098 C179.629053,26.9699699 178.565053,27.66765 177.323213,28.168642 C176.081372,28.669634 174.724012,28.920434 173.249612,28.920434 C171.776732,28.920434 170.425452,28.669634 169.197292,28.168642 C167.969132,27.66765 166.911212,26.9699699 166.025052,26.0762098 C165.137372,25.1822978 164.448812,24.1257457 163.957852,22.9067056 C163.466892,21.6878175 163.220652,20.3608574 163.220652,18.9247613 C163.220652,17.4892732 163.466892,16.1617051 163.957852,14.9428171 C164.448812,13.723777 165.137372,12.6743689 166.025052,11.7938328 C166.911212,10.9139048 167.969132,10.2230647 169.197292,9.72146469 C170.425452,9.22062465 171.776732,8.96982463 173.249612,8.96982463 C174.724012,8.96982463 176.081372,9.22062465 177.323213,9.72146469 C178.565053,10.2230647 179.629053,10.9139048 180.516733,11.7938328 C181.404413,12.6743689 182.092973,13.723777 182.583933,14.9428171 C183.074893,16.1617051 183.321133,17.4892732 183.321133,18.9247613 L183.321133,18.9247613 Z" id="Fill-3"></path><polygon id="Fill-4" points="99.470327 28.91557 103.831663 28.91557 103.831663 0.149112011 99.470327 0.149112011"></polygon><path d="M86.6793741,24.9485218 C83.3443419,24.9485218 80.6688377,22.2363856 80.6688377,18.9378333 C80.6688377,15.6026491 83.3809739,12.9271449 86.6793741,12.9271449 C89.9779264,12.9271449 92.6900626,15.6392811 92.6900626,18.9378333 C92.6900626,22.2730176 89.9779264,24.9485218 86.6793741,24.9485218 Z M86.6793741,9.00554464 C81.1818377,9.00554464 76.7106054,13.476929 76.7106054,18.9744653 C76.7106054,24.4720017 81.1818377,28.943386 86.6793741,28.943386 C92.1769105,28.943386 96.6482948,24.4720017 96.6482948,18.9744653 C96.6482948,13.476929 92.1769105,9.00554464 86.6793741,9.00554464 L86.6793741,9.00554464 Z" id="Fill-5"></path><path d="M41.0085389,28.91557 L36.7643946,28.91557 C28.83957,28.91557 22.3794176,22.4555696 22.3794176,14.530745 C22.3794176,6.60592047 28.83957,0.14576801 36.7643946,0.14576801 L41.0085389,0.14576801 L41.0085389,28.91557" id="Fill-6"></path><path d="M0.085272006,0.14576801 L4.32941631,0.14576801 C12.2542409,0.14576801 18.7143933,6.60592047 18.7143933,14.530745 C18.7143933,22.4555696 12.2542409,28.91557 4.32941631,28.91557 L0.085272006,28.91557 L0.085272006,0.14576801" id="Fill-7"></path><path d="M117.566992,24.9495858 C114.900152,24.9495858 112.659368,23.2137456 111.86684,20.8323615 C111.668176,20.2354574 111.556456,19.5999454 111.556456,18.9390493 C111.556456,18.2743533 111.668176,17.6377772 111.86684,17.0416332 C112.66484,14.645657 114.92584,12.9283609 117.566992,12.9283609 C120.865545,12.9283609 123.577681,15.6404971 123.577681,18.9390493 C123.577681,22.2742336 120.865545,24.9495858 117.566992,24.9495858 Z M117.566992,9.00676064 C115.448264,9.00676064 113.483512,9.67297668 111.86684,10.8040088 L111.866688,0.149112011 L107.496688,0.149112011 L107.496688,28.91557 L111.86684,28.91557 L111.86684,27.1472019 C113.483512,28.278386 115.448264,28.944602 117.566992,28.944602 C123.064529,28.944602 127.535913,24.4732177 127.535913,18.9756813 C127.535913,13.478145 123.064529,9.00676064 117.566992,9.00676064 L117.566992,9.00676064 Z" id="Fill-8"></path><path d="M60.1115963,24.5536257 L54.0823638,24.5536257 L54.0823638,4.50604032 L60.1115963,4.50604032 C65.6339086,4.50604032 70.135541,9.00752064 70.135541,14.529833 C70.135541,20.0521454 65.6339086,24.5536257 60.1115963,24.5536257 Z M60.1115963,0.14409601 L49.7207235,0.14409601 L49.7207235,28.91557 L60.1115963,28.91557 C68.0438688,28.91557 74.4973333,22.4621056 74.4973333,14.529833 C74.4973333,6.59740847 68.0438688,0.14409601 60.1115963,0.14409601 L60.1115963,0.14409601 Z" id="Fill-9"></path><path d="M143.51537,9.02332864 L137.83361,21.7980175 L132.151697,9.02332864 L127.387105,9.02332864 L135.45177,27.1490259 C135.45177,27.1490259 133.478809,31.5897062 133.474249,31.5997382 C132.951217,32.7718103 131.572273,33.3021384 130.403241,32.7806263 L129.777457,32.5014023 L128.016689,36.4526426 L128.017145,36.4529466 L128.024441,36.4561386 L129.535017,37.1299546 C132.370273,38.3950507 135.71473,37.1088266 136.98393,34.2659704 C136.99457,34.2425624 147.30929,11.1891768 148.27905,9.02332864 L143.51537,9.02332864" id="Fill-10"></path><path d="M160.264251,1.98527214 C160.264251,2.50252818 160.094011,2.94439221 159.750491,3.31162423 C159.408491,3.67885626 158.963131,3.86247227 158.414411,3.86247227 C157.865691,3.86247227 157.421851,3.67885626 157.078331,3.31162423 C156.736331,2.94439221 156.564571,2.50252818 156.564571,1.98527214 C156.564571,1.52304011 156.736331,1.10169608 157.078331,0.720480051 C157.421851,0.339872024 157.865691,0.149112011 158.414411,0.149112011 C158.963131,0.149112011 159.408491,0.339872024 159.750491,0.720480051 C160.094011,1.10169608 160.264251,1.52304011 160.264251,1.98527214" id="Fill-11"></path></g></g></g></g></g></svg>
